%TF.GenerationSoftware,KiCad,Pcbnew,8.0.2*%
%TF.CreationDate,2024-06-15T16:53:24+02:00*%
%TF.ProjectId,KiCad_STM32_F105RCT6TR,4b694361-645f-4535-944d-33325f463130,v 1.0*%
%TF.SameCoordinates,Original*%
%TF.FileFunction,Copper,L1,Top*%
%TF.FilePolarity,Positive*%
%FSLAX46Y46*%
G04 Gerber Fmt 4.6, Leading zero omitted, Abs format (unit mm)*
G04 Created by KiCad (PCBNEW 8.0.2) date 2024-06-15 16:53:24*
%MOMM*%
%LPD*%
G01*
G04 APERTURE LIST*
G04 Aperture macros list*
%AMRoundRect*
0 Rectangle with rounded corners*
0 $1 Rounding radius*
0 $2 $3 $4 $5 $6 $7 $8 $9 X,Y pos of 4 corners*
0 Add a 4 corners polygon primitive as box body*
4,1,4,$2,$3,$4,$5,$6,$7,$8,$9,$2,$3,0*
0 Add four circle primitives for the rounded corners*
1,1,$1+$1,$2,$3*
1,1,$1+$1,$4,$5*
1,1,$1+$1,$6,$7*
1,1,$1+$1,$8,$9*
0 Add four rect primitives between the rounded corners*
20,1,$1+$1,$2,$3,$4,$5,0*
20,1,$1+$1,$4,$5,$6,$7,0*
20,1,$1+$1,$6,$7,$8,$9,0*
20,1,$1+$1,$8,$9,$2,$3,0*%
G04 Aperture macros list end*
%TA.AperFunction,SMDPad,CuDef*%
%ADD10RoundRect,0.075000X-0.075000X-0.700000X0.075000X-0.700000X0.075000X0.700000X-0.075000X0.700000X0*%
%TD*%
%TA.AperFunction,SMDPad,CuDef*%
%ADD11RoundRect,0.075000X-0.700000X-0.075000X0.700000X-0.075000X0.700000X0.075000X-0.700000X0.075000X0*%
%TD*%
%TA.AperFunction,SMDPad,CuDef*%
%ADD12RoundRect,0.140000X-0.170000X0.140000X-0.170000X-0.140000X0.170000X-0.140000X0.170000X0.140000X0*%
%TD*%
%TA.AperFunction,ComponentPad*%
%ADD13O,1.000000X1.000000*%
%TD*%
%TA.AperFunction,ComponentPad*%
%ADD14R,1.000000X1.000000*%
%TD*%
%TA.AperFunction,ComponentPad*%
%ADD15C,1.500000*%
%TD*%
%TA.AperFunction,SMDPad,CuDef*%
%ADD16R,1.700000X2.000000*%
%TD*%
%TA.AperFunction,SMDPad,CuDef*%
%ADD17R,2.000000X0.500000*%
%TD*%
%TA.AperFunction,ComponentPad*%
%ADD18O,1.500000X2.500000*%
%TD*%
%TA.AperFunction,ComponentPad*%
%ADD19R,1.500000X2.500000*%
%TD*%
%TA.AperFunction,ComponentPad*%
%ADD20O,2.200000X3.500000*%
%TD*%
%TA.AperFunction,SMDPad,CuDef*%
%ADD21RoundRect,0.250000X0.250000X0.475000X-0.250000X0.475000X-0.250000X-0.475000X0.250000X-0.475000X0*%
%TD*%
%TA.AperFunction,SMDPad,CuDef*%
%ADD22RoundRect,0.200000X-0.200000X-0.275000X0.200000X-0.275000X0.200000X0.275000X-0.200000X0.275000X0*%
%TD*%
%TA.AperFunction,SMDPad,CuDef*%
%ADD23RoundRect,0.225000X-0.225000X-0.250000X0.225000X-0.250000X0.225000X0.250000X-0.225000X0.250000X0*%
%TD*%
%TA.AperFunction,SMDPad,CuDef*%
%ADD24RoundRect,0.375000X0.375000X-0.625000X0.375000X0.625000X-0.375000X0.625000X-0.375000X-0.625000X0*%
%TD*%
%TA.AperFunction,SMDPad,CuDef*%
%ADD25RoundRect,0.500000X1.400000X-0.500000X1.400000X0.500000X-1.400000X0.500000X-1.400000X-0.500000X0*%
%TD*%
%TA.AperFunction,SMDPad,CuDef*%
%ADD26RoundRect,0.218750X0.256250X-0.218750X0.256250X0.218750X-0.256250X0.218750X-0.256250X-0.218750X0*%
%TD*%
%TA.AperFunction,SMDPad,CuDef*%
%ADD27RoundRect,0.140000X0.140000X0.170000X-0.140000X0.170000X-0.140000X-0.170000X0.140000X-0.170000X0*%
%TD*%
%TA.AperFunction,SMDPad,CuDef*%
%ADD28RoundRect,0.140000X-0.140000X-0.170000X0.140000X-0.170000X0.140000X0.170000X-0.140000X0.170000X0*%
%TD*%
%TA.AperFunction,SMDPad,CuDef*%
%ADD29RoundRect,0.140000X0.170000X-0.140000X0.170000X0.140000X-0.170000X0.140000X-0.170000X-0.140000X0*%
%TD*%
%TA.AperFunction,SMDPad,CuDef*%
%ADD30RoundRect,0.200000X-0.275000X0.200000X-0.275000X-0.200000X0.275000X-0.200000X0.275000X0.200000X0*%
%TD*%
%TA.AperFunction,SMDPad,CuDef*%
%ADD31RoundRect,0.250000X-0.475000X0.250000X-0.475000X-0.250000X0.475000X-0.250000X0.475000X0.250000X0*%
%TD*%
%TA.AperFunction,SMDPad,CuDef*%
%ADD32RoundRect,0.218750X-0.218750X-0.256250X0.218750X-0.256250X0.218750X0.256250X-0.218750X0.256250X0*%
%TD*%
%TA.AperFunction,ViaPad*%
%ADD33C,0.700000*%
%TD*%
%TA.AperFunction,Conductor*%
%ADD34C,0.500000*%
%TD*%
%TA.AperFunction,Conductor*%
%ADD35C,0.300000*%
%TD*%
%TA.AperFunction,Conductor*%
%ADD36C,0.200000*%
%TD*%
G04 APERTURE END LIST*
D10*
%TO.P,F105RCT6TR,64,VDD*%
%TO.N,+3.3V*%
X103575000Y-59825000D03*
%TO.P,F105RCT6TR,63,VSS*%
%TO.N,GND*%
X104075000Y-59825000D03*
%TO.P,F105RCT6TR,62,PB9*%
%TO.N,unconnected-(U1-PB9-Pad62)*%
X104575000Y-59825000D03*
%TO.P,F105RCT6TR,61,PB8*%
%TO.N,unconnected-(U1-PB8-Pad61)*%
X105075000Y-59825000D03*
%TO.P,F105RCT6TR,60,BOOT0*%
%TO.N,Net-(U1-BOOT0)*%
X105575000Y-59825000D03*
%TO.P,F105RCT6TR,59,PB7*%
%TO.N,/I2C1_SDA*%
X106075000Y-59825000D03*
%TO.P,F105RCT6TR,58,PB6*%
%TO.N,/I2C1_SCL*%
X106575000Y-59825000D03*
%TO.P,F105RCT6TR,57,PB5*%
%TO.N,unconnected-(U1-PB5-Pad57)*%
X107075000Y-59825000D03*
%TO.P,F105RCT6TR,56,PB4*%
%TO.N,unconnected-(U1-PB4-Pad56)*%
X107575000Y-59825000D03*
%TO.P,F105RCT6TR,55,PB3*%
%TO.N,unconnected-(U1-PB3-Pad55)*%
X108075000Y-59825000D03*
%TO.P,F105RCT6TR,54,PD2*%
%TO.N,unconnected-(U1-PD2-Pad54)*%
X108575000Y-59825000D03*
%TO.P,F105RCT6TR,53,PC12*%
%TO.N,unconnected-(U1-PC12-Pad53)*%
X109075000Y-59825000D03*
%TO.P,F105RCT6TR,52,PC11*%
%TO.N,unconnected-(U1-PC11-Pad52)*%
X109575000Y-59825000D03*
%TO.P,F105RCT6TR,51,PC10*%
%TO.N,unconnected-(U1-PC10-Pad51)*%
X110075000Y-59825000D03*
%TO.P,F105RCT6TR,50,PA15*%
%TO.N,unconnected-(U1-PA15-Pad50)*%
X110575000Y-59825000D03*
%TO.P,F105RCT6TR,49,PA14*%
%TO.N,/SWCLK*%
X111075000Y-59825000D03*
D11*
%TO.P,F105RCT6TR,48,VDD*%
%TO.N,+3.3V*%
X113000000Y-61750000D03*
%TO.P,F105RCT6TR,47,VSS*%
%TO.N,GND*%
X113000000Y-62250000D03*
%TO.P,F105RCT6TR,46,PA13*%
%TO.N,/SWDIO*%
X113000000Y-62750000D03*
%TO.P,F105RCT6TR,45,PA12*%
%TO.N,/USB_D+*%
X113000000Y-63250000D03*
%TO.P,F105RCT6TR,44,PA11*%
%TO.N,/USB_D-*%
X113000000Y-63750000D03*
%TO.P,F105RCT6TR,43,PA10*%
%TO.N,/OLED_DC*%
X113000000Y-64250000D03*
%TO.P,F105RCT6TR,42,PA9*%
%TO.N,/OLED_CS*%
X113000000Y-64750000D03*
%TO.P,F105RCT6TR,41,PA8*%
%TO.N,unconnected-(U1-PA8-Pad41)*%
X113000000Y-65250000D03*
%TO.P,F105RCT6TR,40,PC9*%
%TO.N,unconnected-(U1-PC9-Pad40)*%
X113000000Y-65750000D03*
%TO.P,F105RCT6TR,39,PC8*%
%TO.N,unconnected-(U1-PC8-Pad39)*%
X113000000Y-66250000D03*
%TO.P,F105RCT6TR,38,PC7*%
%TO.N,unconnected-(U1-PC7-Pad38)*%
X113000000Y-66750000D03*
%TO.P,F105RCT6TR,37,PC6*%
%TO.N,unconnected-(U1-PC6-Pad37)*%
X113000000Y-67250000D03*
%TO.P,F105RCT6TR,36,PB15*%
%TO.N,unconnected-(U1-PB15-Pad36)*%
X113000000Y-67750000D03*
%TO.P,F105RCT6TR,35,PB14*%
%TO.N,unconnected-(U1-PB14-Pad35)*%
X113000000Y-68250000D03*
%TO.P,F105RCT6TR,34,PB13*%
%TO.N,unconnected-(U1-PB13-Pad34)*%
X113000000Y-68750000D03*
%TO.P,F105RCT6TR,33,PB12*%
%TO.N,unconnected-(U1-PB12-Pad33)*%
X113000000Y-69250000D03*
D10*
%TO.P,F105RCT6TR,32,VDD*%
%TO.N,+3.3V*%
X111075000Y-71175000D03*
%TO.P,F105RCT6TR,31,VSS*%
%TO.N,GND*%
X110575000Y-71175000D03*
%TO.P,F105RCT6TR,30,PB11*%
%TO.N,unconnected-(U1-PB11-Pad30)*%
X110075000Y-71175000D03*
%TO.P,F105RCT6TR,29,PB10*%
%TO.N,unconnected-(U1-PB10-Pad29)*%
X109575000Y-71175000D03*
%TO.P,F105RCT6TR,28,PB2*%
%TO.N,unconnected-(U1-PB2-Pad28)*%
X109075000Y-71175000D03*
%TO.P,F105RCT6TR,27,PB1*%
%TO.N,unconnected-(U1-PB1-Pad27)*%
X108575000Y-71175000D03*
%TO.P,F105RCT6TR,26,PB0*%
%TO.N,unconnected-(U1-PB0-Pad26)*%
X108075000Y-71175000D03*
%TO.P,F105RCT6TR,25,PC5*%
%TO.N,unconnected-(U1-PC5-Pad25)*%
X107575000Y-71175000D03*
%TO.P,F105RCT6TR,24,PC4*%
%TO.N,unconnected-(U1-PC4-Pad24)*%
X107075000Y-71175000D03*
%TO.P,F105RCT6TR,23,PA7*%
%TO.N,/SPI1_MOSI*%
X106575000Y-71175000D03*
%TO.P,F105RCT6TR,22,PA6*%
%TO.N,unconnected-(U1-PA6-Pad22)*%
X106075000Y-71175000D03*
%TO.P,F105RCT6TR,21,PA5*%
%TO.N,/SPI1_SCK*%
X105575000Y-71175000D03*
%TO.P,F105RCT6TR,20,PA4*%
%TO.N,unconnected-(U1-PA4-Pad20)*%
X105075000Y-71175000D03*
%TO.P,F105RCT6TR,19,VDD*%
%TO.N,+3.3V*%
X104575000Y-71175000D03*
%TO.P,F105RCT6TR,18,VSS*%
%TO.N,GND*%
X104075000Y-71175000D03*
%TO.P,F105RCT6TR,17,PA3*%
%TO.N,unconnected-(U1-PA3-Pad17)*%
X103575000Y-71175000D03*
D11*
%TO.P,F105RCT6TR,16,PA2*%
%TO.N,unconnected-(U1-PA2-Pad16)*%
X101650000Y-69250000D03*
%TO.P,F105RCT6TR,15,PA1*%
%TO.N,unconnected-(U1-PA1-Pad15)*%
X101650000Y-68750000D03*
%TO.P,F105RCT6TR,14,PA0*%
%TO.N,unconnected-(U1-PA0-Pad14)*%
X101650000Y-68250000D03*
%TO.P,F105RCT6TR,13,VDDA*%
%TO.N,+3.3VA*%
X101650000Y-67750000D03*
%TO.P,F105RCT6TR,12,VSSA*%
%TO.N,GND*%
X101650000Y-67250000D03*
%TO.P,F105RCT6TR,11,PC3*%
%TO.N,unconnected-(U1-PC3-Pad11)*%
X101650000Y-66750000D03*
%TO.P,F105RCT6TR,10,PC2*%
%TO.N,unconnected-(U1-PC2-Pad10)*%
X101650000Y-66250000D03*
%TO.P,F105RCT6TR,9,PC1*%
%TO.N,unconnected-(U1-PC1-Pad9)*%
X101650000Y-65750000D03*
%TO.P,F105RCT6TR,8,PC0*%
%TO.N,unconnected-(U1-PC0-Pad8)*%
X101650000Y-65250000D03*
%TO.P,F105RCT6TR,7,NRST*%
%TO.N,/NRST*%
X101650000Y-64750000D03*
%TO.P,F105RCT6TR,6,PD1*%
%TO.N,/HSE_OUT*%
X101650000Y-64250000D03*
%TO.P,F105RCT6TR,5,PD0*%
%TO.N,/HSE_IN*%
X101650000Y-63750000D03*
%TO.P,F105RCT6TR,4,PC15*%
%TO.N,unconnected-(U1-PC15-Pad4)*%
X101650000Y-63250000D03*
%TO.P,F105RCT6TR,3,PC14*%
%TO.N,unconnected-(U1-PC14-Pad3)*%
X101650000Y-62750000D03*
%TO.P,F105RCT6TR,2,PC13*%
%TO.N,unconnected-(U1-PC13-Pad2)*%
X101650000Y-62250000D03*
%TO.P,F105RCT6TR,1,VBAT*%
%TO.N,+3.3V*%
X101650000Y-61750000D03*
%TD*%
D12*
%TO.P,C3,1*%
%TO.N,+3.3V*%
X115075000Y-61540000D03*
%TO.P,C3,2*%
%TO.N,GND*%
X115075000Y-62500000D03*
%TD*%
%TO.P,C12,1*%
%TO.N,/HSE_OUT*%
X96000000Y-64270000D03*
%TO.P,C12,2*%
%TO.N,GND*%
X96000000Y-65230000D03*
%TD*%
D13*
%TO.P,SWD,4,Pin_4*%
%TO.N,GND*%
X109860000Y-54000000D03*
%TO.P,SWD,3,Pin_3*%
%TO.N,/SWCLK*%
X111130000Y-54000000D03*
%TO.P,SWD,2,Pin_2*%
%TO.N,/SWDIO*%
X112400000Y-54000000D03*
D14*
%TO.P,SWD,1,Pin_1*%
%TO.N,+3.3V*%
X113670000Y-54000000D03*
%TD*%
D13*
%TO.P,OLED,7,Pin_7*%
%TO.N,/OLED_CS*%
X106000000Y-84000000D03*
%TO.P,OLED,6,Pin_6*%
%TO.N,/OLED_DC*%
X107270000Y-84000000D03*
%TO.P,OLED,5,Pin_5*%
%TO.N,GND*%
X108540000Y-84000000D03*
%TO.P,OLED,4,Pin_4*%
%TO.N,/SPI1_MOSI*%
X109810000Y-84000000D03*
%TO.P,OLED,3,Pin_3*%
%TO.N,/SPI1_SCK*%
X111080000Y-84000000D03*
%TO.P,OLED,2,Pin_2*%
%TO.N,VBUS*%
X112350000Y-84000000D03*
D14*
%TO.P,OLED,1,Pin_1*%
%TO.N,GND*%
X113620000Y-84000000D03*
%TD*%
D15*
%TO.P,Y1,1,1*%
%TO.N,/HSE_IN*%
X92325000Y-61550000D03*
%TO.P,Y1,2,2*%
%TO.N,/HSE_OUT*%
X92325000Y-66430000D03*
%TD*%
D16*
%TO.P,USB,6,Shield*%
%TO.N,unconnected-(J1-Shield-Pad6)*%
X126275000Y-58750000D03*
%TO.N,unconnected-(J1-Shield-Pad6)_0*%
X120825000Y-58750000D03*
%TO.N,unconnected-(J1-Shield-Pad6)_2*%
X126275000Y-67650000D03*
%TO.N,unconnected-(J1-Shield-Pad6)_1*%
X120825000Y-67650000D03*
D17*
%TO.P,USB,5,GND*%
%TO.N,GND*%
X120725000Y-61600000D03*
%TO.P,USB,4,ID*%
%TO.N,unconnected-(J1-ID-Pad4)*%
X120725000Y-62400000D03*
%TO.P,USB,3,D+*%
%TO.N,/USB_D+*%
X120725000Y-63200000D03*
%TO.P,USB,2,D-*%
%TO.N,/USB_D-*%
X120725000Y-64000000D03*
%TO.P,USB,1,VBUS*%
%TO.N,VBUS*%
X120725000Y-64800000D03*
%TD*%
D18*
%TO.P,BOOT,3,C*%
%TO.N,+3.3V*%
X97000000Y-54250000D03*
%TO.P,BOOT,2,B*%
%TO.N,Net-(SW1-B)*%
X95000000Y-54250000D03*
D19*
%TO.P,BOOT,1,A*%
%TO.N,GND*%
X93000000Y-54250000D03*
D20*
%TO.P,BOOT,*%
%TO.N,*%
X99100000Y-54250000D03*
X90900000Y-54250000D03*
%TD*%
D21*
%TO.P,C13,1*%
%TO.N,VBUS*%
X123500000Y-82650000D03*
%TO.P,C13,2*%
%TO.N,GND*%
X121600000Y-82650000D03*
%TD*%
D22*
%TO.P,R1,1*%
%TO.N,Net-(SW1-B)*%
X103250000Y-53000000D03*
%TO.P,R1,2*%
%TO.N,Net-(U1-BOOT0)*%
X104900000Y-53000000D03*
%TD*%
D23*
%TO.P,C5,1*%
%TO.N,+3.3V*%
X103000000Y-56250000D03*
%TO.P,C5,2*%
%TO.N,GND*%
X104550000Y-56250000D03*
%TD*%
D24*
%TO.P,U2,1,GND*%
%TO.N,GND*%
X120100000Y-80050000D03*
%TO.P,U2,2,VO*%
%TO.N,+3.3V*%
X122400000Y-80050000D03*
D25*
X122400000Y-73750000D03*
D24*
%TO.P,U2,3,VI*%
%TO.N,VBUS*%
X124700000Y-80050000D03*
%TD*%
D26*
%TO.P,FB1,1*%
%TO.N,+3.3VA*%
X96345000Y-69325000D03*
%TO.P,FB1,2*%
%TO.N,+3.3V*%
X96345000Y-67750000D03*
%TD*%
D27*
%TO.P,C9,1*%
%TO.N,/NRST*%
X99710000Y-65000000D03*
%TO.P,C9,2*%
%TO.N,GND*%
X98750000Y-65000000D03*
%TD*%
D13*
%TO.P,PULSE,4,Pin_4*%
%TO.N,/I2C1_SCL*%
X98000000Y-84000000D03*
%TO.P,PULSE,3,Pin_3*%
%TO.N,/I2C1_SDA*%
X96730000Y-84000000D03*
%TO.P,PULSE,2,Pin_2*%
%TO.N,+3.3V*%
X95460000Y-84000000D03*
D14*
%TO.P,PULSE,1,Pin_1*%
%TO.N,GND*%
X94190000Y-84000000D03*
%TD*%
D22*
%TO.P,R3,1*%
%TO.N,GND*%
X117350000Y-71500000D03*
%TO.P,R3,2*%
%TO.N,Net-(D1-K)*%
X119000000Y-71500000D03*
%TD*%
D28*
%TO.P,C8,1*%
%TO.N,+3.3V*%
X97095000Y-66250000D03*
%TO.P,C8,2*%
%TO.N,GND*%
X98055000Y-66250000D03*
%TD*%
%TO.P,C4,1*%
%TO.N,+3.3V*%
X103250000Y-58000000D03*
%TO.P,C4,2*%
%TO.N,GND*%
X104210000Y-58000000D03*
%TD*%
D27*
%TO.P,C1,1*%
%TO.N,+3.3V*%
X99980000Y-61750000D03*
%TO.P,C1,2*%
%TO.N,GND*%
X99020000Y-61750000D03*
%TD*%
%TO.P,C2,1*%
%TO.N,+3.3V*%
X104785000Y-73000000D03*
%TO.P,C2,2*%
%TO.N,GND*%
X103825000Y-73000000D03*
%TD*%
%TO.P,C10,1*%
%TO.N,+3.3V*%
X111250000Y-73000000D03*
%TO.P,C10,2*%
%TO.N,GND*%
X110290000Y-73000000D03*
%TD*%
D29*
%TO.P,C6,1*%
%TO.N,+3.3VA*%
X99345000Y-67705000D03*
%TO.P,C6,2*%
%TO.N,GND*%
X99345000Y-66745000D03*
%TD*%
%TO.P,C7,1*%
%TO.N,+3.3VA*%
X97845000Y-68480000D03*
%TO.P,C7,2*%
%TO.N,GND*%
X97845000Y-67520000D03*
%TD*%
D30*
%TO.P,R2,1*%
%TO.N,VBUS*%
X116750000Y-61350000D03*
%TO.P,R2,2*%
%TO.N,/USB_D+*%
X116750000Y-63000000D03*
%TD*%
D31*
%TO.P,C14,1*%
%TO.N,+3.3V*%
X117500000Y-78250000D03*
%TO.P,C14,2*%
%TO.N,GND*%
X117500000Y-80150000D03*
%TD*%
D32*
%TO.P,D1,1,K*%
%TO.N,Net-(D1-K)*%
X120675000Y-71500000D03*
%TO.P,D1,2,A*%
%TO.N,+3.3V*%
X122250000Y-71500000D03*
%TD*%
D29*
%TO.P,C11,1*%
%TO.N,/HSE_IN*%
X96000000Y-61460000D03*
%TO.P,C11,2*%
%TO.N,GND*%
X96000000Y-60500000D03*
%TD*%
D33*
%TO.N,GND*%
X116000000Y-80750000D03*
X120500000Y-78500000D03*
X111700000Y-62050000D03*
X103000000Y-67250000D03*
X119500000Y-78500000D03*
X116000000Y-80000000D03*
X120250000Y-83000000D03*
X104362588Y-69612589D03*
X120250000Y-82250000D03*
X104250000Y-61500000D03*
X109750000Y-69700000D03*
%TO.N,+3.3V*%
X105875000Y-74000000D03*
X112500000Y-57000000D03*
X116200000Y-75250000D03*
X111180000Y-75000000D03*
X107275000Y-74000000D03*
X98539975Y-63010025D03*
X96000000Y-66250000D03*
X102250000Y-57750000D03*
%TO.N,VBUS*%
X118250000Y-64375000D03*
X118250000Y-62500000D03*
%TO.N,/OLED_DC*%
X112580000Y-79000000D03*
X106910025Y-82089975D03*
%TO.N,/OLED_CS*%
X112580000Y-78000000D03*
X106239016Y-81490182D03*
%TD*%
D34*
%TO.N,GND*%
X113620000Y-84000000D02*
X113620000Y-83130000D01*
X113620000Y-83130000D02*
X116000000Y-80750000D01*
D35*
X104210000Y-57540000D02*
X104550000Y-57200000D01*
D34*
X97770000Y-60500000D02*
X96000000Y-60500000D01*
X117350000Y-71500000D02*
X119500000Y-73650000D01*
X120725000Y-61600000D02*
X115000000Y-55875000D01*
D35*
X103825000Y-72425000D02*
X103825000Y-73000000D01*
X98055000Y-67310000D02*
X97845000Y-67520000D01*
X104075000Y-58925000D02*
X104250000Y-58750000D01*
D34*
X94190000Y-84000000D02*
X94190000Y-83000000D01*
D35*
X96000000Y-65230000D02*
X97590000Y-65230000D01*
X110575000Y-71175000D02*
X110575000Y-70296880D01*
X110290000Y-72338120D02*
X110290000Y-73000000D01*
X99391846Y-66745000D02*
X99345000Y-66745000D01*
D34*
X109860000Y-53292894D02*
X109860000Y-54000000D01*
D35*
X98055000Y-65695000D02*
X98750000Y-65000000D01*
D34*
X99020000Y-61750000D02*
X97770000Y-60500000D01*
D35*
X104075000Y-59825000D02*
X104075000Y-61325000D01*
X98055000Y-66250000D02*
X98055000Y-65695000D01*
D34*
X93000000Y-55500000D02*
X93000000Y-54250000D01*
D35*
X101650000Y-67250000D02*
X99896846Y-67250000D01*
X109978120Y-69700000D02*
X109750000Y-69700000D01*
D34*
X115000000Y-53430000D02*
X114570000Y-53000000D01*
D35*
X97590000Y-65230000D02*
X98055000Y-65695000D01*
X104075000Y-61325000D02*
X104250000Y-61500000D01*
X114000000Y-62250000D02*
X114250000Y-62500000D01*
X101650000Y-67250000D02*
X103000000Y-67250000D01*
X98850000Y-66250000D02*
X98055000Y-66250000D01*
X99896846Y-67250000D02*
X99391846Y-66745000D01*
X113000000Y-62250000D02*
X111900000Y-62250000D01*
D34*
X94190000Y-83000000D02*
X103825000Y-73365000D01*
X110152894Y-53000000D02*
X109860000Y-53292894D01*
D35*
X104075000Y-72175000D02*
X103825000Y-72425000D01*
X104075000Y-71175000D02*
X104075000Y-69900177D01*
D34*
X115000000Y-55875000D02*
X115000000Y-53430000D01*
D35*
X113000000Y-62250000D02*
X114000000Y-62250000D01*
X110575000Y-71175000D02*
X110575000Y-72053120D01*
X104075000Y-59825000D02*
X104075000Y-58925000D01*
X104075000Y-69900177D02*
X104362588Y-69612589D01*
X98055000Y-66250000D02*
X98055000Y-67310000D01*
X99345000Y-66745000D02*
X98850000Y-66250000D01*
X104210000Y-58000000D02*
X104210000Y-57540000D01*
X104550000Y-57200000D02*
X104550000Y-56250000D01*
D34*
X96000000Y-58500000D02*
X93000000Y-55500000D01*
D35*
X110575000Y-72053120D02*
X110290000Y-72338120D01*
X110575000Y-70296880D02*
X109978120Y-69700000D01*
D34*
X119500000Y-73650000D02*
X119500000Y-78500000D01*
D35*
X114250000Y-62500000D02*
X115075000Y-62500000D01*
D34*
X103825000Y-73365000D02*
X103825000Y-73000000D01*
D35*
X104250000Y-58750000D02*
X104210000Y-58710000D01*
D34*
X114570000Y-53000000D02*
X110152894Y-53000000D01*
X96000000Y-60500000D02*
X96000000Y-58500000D01*
D35*
X104075000Y-71175000D02*
X104075000Y-72175000D01*
X111900000Y-62250000D02*
X111700000Y-62050000D01*
X104210000Y-58710000D02*
X104210000Y-58000000D01*
D34*
%TO.N,+3.3V*%
X98250000Y-82000000D02*
X96752894Y-82000000D01*
X96501447Y-82251447D02*
X104785000Y-73967894D01*
D35*
X103575000Y-58825000D02*
X103250000Y-58500000D01*
D34*
X99500000Y-83250000D02*
X98250000Y-82000000D01*
X96345000Y-66595000D02*
X96000000Y-66250000D01*
D35*
X114250000Y-61500000D02*
X114290000Y-61540000D01*
X96345000Y-67750000D02*
X96345000Y-67000000D01*
X97000000Y-54250000D02*
X97000000Y-55800000D01*
X97550000Y-56350000D02*
X102500000Y-56350000D01*
D34*
X99000000Y-86250000D02*
X99500000Y-85750000D01*
X91250000Y-85250000D02*
X92250000Y-86250000D01*
D35*
X103000000Y-61750000D02*
X103575000Y-61175000D01*
X111250000Y-72250000D02*
X111250000Y-73000000D01*
D34*
X98539975Y-63010025D02*
X99239975Y-63010025D01*
D35*
X97000000Y-55800000D02*
X97550000Y-56350000D01*
D34*
X99980000Y-62270000D02*
X99980000Y-61750000D01*
X111180000Y-73070000D02*
X111250000Y-73000000D01*
D35*
X103250000Y-57750000D02*
X103000000Y-57500000D01*
D34*
X121250000Y-70500000D02*
X122250000Y-71500000D01*
D35*
X113000000Y-61750000D02*
X112500000Y-61250000D01*
X102500000Y-56350000D02*
X102900000Y-56350000D01*
D34*
X96345000Y-67750000D02*
X91250000Y-72845000D01*
X105285000Y-74000000D02*
X104785000Y-73500000D01*
X116200000Y-71250220D02*
X116950220Y-70500000D01*
X96752894Y-82000000D02*
X96501447Y-82251447D01*
X113670000Y-60135000D02*
X115075000Y-61540000D01*
D35*
X103575000Y-59825000D02*
X103575000Y-58825000D01*
X103575000Y-61175000D02*
X103575000Y-59825000D01*
D34*
X104785000Y-73500000D02*
X104785000Y-73000000D01*
D35*
X113000000Y-61750000D02*
X114000000Y-61750000D01*
D34*
X92250000Y-86250000D02*
X99000000Y-86250000D01*
D35*
X103250000Y-58500000D02*
X103250000Y-58000000D01*
X103250000Y-58000000D02*
X103250000Y-57750000D01*
D34*
X105875000Y-74000000D02*
X105285000Y-74000000D01*
X117500000Y-76550000D02*
X116200000Y-75250000D01*
D35*
X99980000Y-61750000D02*
X101650000Y-61750000D01*
X102900000Y-56350000D02*
X103000000Y-56250000D01*
D34*
X95460000Y-83292894D02*
X96501447Y-82251447D01*
X116200000Y-75250000D02*
X116200000Y-71250220D01*
D35*
X114290000Y-61540000D02*
X115075000Y-61540000D01*
X102250000Y-57750000D02*
X102250000Y-56600000D01*
D34*
X111180000Y-74000000D02*
X111180000Y-73070000D01*
X117500000Y-78250000D02*
X117500000Y-76550000D01*
X111180000Y-75000000D02*
X111180000Y-74000000D01*
X116950220Y-70500000D02*
X121250000Y-70500000D01*
D35*
X101650000Y-61750000D02*
X103000000Y-61750000D01*
X102250000Y-56600000D02*
X102500000Y-56350000D01*
D34*
X99500000Y-85750000D02*
X99500000Y-83250000D01*
D35*
X114000000Y-61750000D02*
X114250000Y-61500000D01*
D34*
X104785000Y-73967894D02*
X104785000Y-73500000D01*
X99239975Y-63010025D02*
X99980000Y-62270000D01*
D35*
X104575000Y-71175000D02*
X104575000Y-72053120D01*
X122650000Y-80300000D02*
X122400000Y-80050000D01*
X104575000Y-72053120D02*
X104785000Y-72263120D01*
X104785000Y-72263120D02*
X104785000Y-73000000D01*
D34*
X96345000Y-67750000D02*
X96345000Y-66595000D01*
X113670000Y-54000000D02*
X113670000Y-60135000D01*
X95460000Y-84000000D02*
X95460000Y-83292894D01*
D35*
X103000000Y-57500000D02*
X103000000Y-56250000D01*
D34*
X111180000Y-74000000D02*
X107275000Y-74000000D01*
X91250000Y-72845000D02*
X91250000Y-85250000D01*
D35*
X96345000Y-67000000D02*
X97095000Y-66250000D01*
X112500000Y-61250000D02*
X112500000Y-57000000D01*
X111075000Y-72075000D02*
X111250000Y-72250000D01*
X111075000Y-71175000D02*
X111075000Y-72075000D01*
%TO.N,+3.3VA*%
X98865000Y-68480000D02*
X99345000Y-68000000D01*
X97845000Y-68480000D02*
X98865000Y-68480000D01*
X99345000Y-68000000D02*
X99595000Y-67750000D01*
X96345000Y-69325000D02*
X97000000Y-69325000D01*
X97000000Y-69325000D02*
X97845000Y-68480000D01*
X99595000Y-67750000D02*
X101650000Y-67750000D01*
%TO.N,/NRST*%
X99960000Y-64750000D02*
X101650000Y-64750000D01*
X99710000Y-65000000D02*
X99960000Y-64750000D01*
%TO.N,/HSE_IN*%
X92415000Y-61460000D02*
X92325000Y-61550000D01*
X96000000Y-61460000D02*
X92415000Y-61460000D01*
X98290000Y-63750000D02*
X101650000Y-63750000D01*
X96000000Y-61460000D02*
X98290000Y-63750000D01*
%TO.N,/HSE_OUT*%
X96020000Y-64250000D02*
X101650000Y-64250000D01*
X96000000Y-64270000D02*
X96020000Y-64250000D01*
X92325000Y-66430000D02*
X94485000Y-64270000D01*
X94485000Y-64270000D02*
X96000000Y-64270000D01*
D34*
%TO.N,VBUS*%
X117900000Y-62500000D02*
X116750000Y-61350000D01*
X120725000Y-64800000D02*
X119525000Y-66000000D01*
X121200000Y-84950000D02*
X112592894Y-84950000D01*
X118675000Y-64800000D02*
X118250000Y-64375000D01*
X119925000Y-69500000D02*
X122500000Y-69500000D01*
X112350000Y-84707106D02*
X112350000Y-84000000D01*
X118250000Y-62500000D02*
X117900000Y-62500000D01*
X120725000Y-64800000D02*
X118675000Y-64800000D01*
X123500000Y-82650000D02*
X121200000Y-84950000D01*
X125750000Y-79000000D02*
X124700000Y-80050000D01*
X112592894Y-84950000D02*
X112350000Y-84707106D01*
X122500000Y-69500000D02*
X125750000Y-72750000D01*
X119525000Y-66000000D02*
X119525000Y-69100000D01*
X119525000Y-69100000D02*
X119925000Y-69500000D01*
X125750000Y-72750000D02*
X125750000Y-79000000D01*
D35*
%TO.N,Net-(D1-K)*%
X120675000Y-71500000D02*
X119000000Y-71500000D01*
D36*
%TO.N,/USB_D+*%
X119401206Y-63200000D02*
X119326206Y-63275000D01*
X114187501Y-63275000D02*
X119326206Y-63275000D01*
X120725000Y-63200000D02*
X119401206Y-63200000D01*
X113049999Y-63299999D02*
X113000000Y-63250000D01*
X113000000Y-63250000D02*
X114162501Y-63250000D01*
X114162501Y-63250000D02*
X114187501Y-63275000D01*
%TO.N,/USB_D-*%
X120475000Y-63750000D02*
X119425000Y-63750000D01*
X119425000Y-63725000D02*
X114187501Y-63725000D01*
X120725000Y-64000000D02*
X120475000Y-63750000D01*
X114187501Y-63725000D02*
X114162501Y-63750000D01*
X114162501Y-63750000D02*
X113000000Y-63750000D01*
X119425000Y-63750000D02*
X119425000Y-63725000D01*
D35*
%TO.N,/SWCLK*%
X111130000Y-54000000D02*
X111130000Y-59770000D01*
X111130000Y-59770000D02*
X111075000Y-59825000D01*
%TO.N,/SWDIO*%
X112400000Y-54000000D02*
X111630000Y-54770000D01*
X111250000Y-62750000D02*
X113000000Y-62750000D01*
X111630000Y-60648120D02*
X111000000Y-61278120D01*
X111000000Y-61278120D02*
X111000000Y-62500000D01*
X111000000Y-62500000D02*
X111250000Y-62750000D01*
X111630000Y-54770000D02*
X111630000Y-60648120D01*
%TO.N,/SPI1_MOSI*%
X106575000Y-80765000D02*
X106575000Y-71175000D01*
X109810000Y-84000000D02*
X106575000Y-80765000D01*
%TO.N,/SPI1_SCK*%
X110450000Y-69435940D02*
X110450000Y-69410050D01*
X108710050Y-69750000D02*
X106121880Y-69750000D01*
X111880000Y-70601880D02*
X111328120Y-70050000D01*
X106121880Y-69750000D02*
X105575000Y-70296880D01*
X111880000Y-70601880D02*
X111880000Y-83200000D01*
X111880000Y-83200000D02*
X111080000Y-84000000D01*
X111328120Y-70050000D02*
X111064060Y-70050000D01*
X110039950Y-69000000D02*
X109460050Y-69000000D01*
X105575000Y-70296880D02*
X105575000Y-71175000D01*
X111064060Y-70050000D02*
X110450000Y-69435940D01*
X110450000Y-69410050D02*
X110039950Y-69000000D01*
X109460050Y-69000000D02*
X108710050Y-69750000D01*
%TO.N,/OLED_DC*%
X106750000Y-82250000D02*
X106910025Y-82089975D01*
X114750000Y-64250000D02*
X113000000Y-64250000D01*
X112580000Y-79000000D02*
X113040000Y-79000000D01*
X106750000Y-83480000D02*
X106750000Y-82250000D01*
X113040000Y-79000000D02*
X115500000Y-76540000D01*
X115500000Y-76540000D02*
X115500000Y-65000000D01*
X115500000Y-65000000D02*
X114750000Y-64250000D01*
X107270000Y-84000000D02*
X106750000Y-83480000D01*
%TO.N,/OLED_CS*%
X106000000Y-81729198D02*
X106000000Y-84000000D01*
X114470000Y-65220000D02*
X114000000Y-64750000D01*
X114470000Y-76110000D02*
X112580000Y-78000000D01*
X114000000Y-64750000D02*
X113000000Y-64750000D01*
X106239016Y-81490182D02*
X106000000Y-81729198D01*
X114470000Y-65220000D02*
X114470000Y-76110000D01*
%TO.N,/I2C1_SDA*%
X92750000Y-85000000D02*
X92750000Y-79000000D01*
X98352082Y-83150000D02*
X98850000Y-83647918D01*
X93100000Y-85350000D02*
X92750000Y-85000000D01*
X102528120Y-69750000D02*
X106075000Y-66203120D01*
X96730000Y-84000000D02*
X97580000Y-83150000D01*
X98850000Y-83647918D02*
X98850000Y-84500000D01*
X106075000Y-66203120D02*
X106075000Y-59825000D01*
X98850000Y-84500000D02*
X98000000Y-85350000D01*
X102000000Y-69750000D02*
X102528120Y-69750000D01*
X92750000Y-79000000D02*
X102000000Y-69750000D01*
X97580000Y-83150000D02*
X98352082Y-83150000D01*
X98000000Y-85350000D02*
X93100000Y-85350000D01*
%TO.N,/I2C1_SCL*%
X106575000Y-66410227D02*
X106575000Y-59825000D01*
X93340000Y-84840000D02*
X93340000Y-79645226D01*
X98000000Y-84000000D02*
X97150000Y-84850000D01*
X93350000Y-84850000D02*
X93340000Y-84840000D01*
X93340000Y-79645226D02*
X98000000Y-74985226D01*
X98000000Y-74985227D02*
X106575000Y-66410227D01*
X97150000Y-84850000D02*
X93350000Y-84850000D01*
%TO.N,Net-(U1-BOOT0)*%
X104900000Y-53000000D02*
X105575000Y-53675000D01*
X105575000Y-53675000D02*
X105575000Y-59825000D01*
%TO.N,Net-(SW1-B)*%
X95000000Y-54250000D02*
X95000000Y-52750000D01*
X95600000Y-52150000D02*
X102400000Y-52150000D01*
X102400000Y-52150000D02*
X103250000Y-53000000D01*
X95000000Y-52750000D02*
X95600000Y-52150000D01*
%TD*%
%TA.AperFunction,Conductor*%
%TO.N,+3.3V*%
G36*
X122765677Y-70769685D02*
G01*
X122786319Y-70786319D01*
X123243766Y-71243766D01*
X123255285Y-71257047D01*
X123999996Y-72249996D01*
X124000004Y-72250005D01*
X124713681Y-72963681D01*
X124747166Y-73025004D01*
X124750000Y-73051362D01*
X124750000Y-74462455D01*
X124730315Y-74529494D01*
X124729174Y-74531238D01*
X124250000Y-75249999D01*
X124250000Y-77198638D01*
X124230315Y-77265677D01*
X124213681Y-77286319D01*
X123250000Y-78249999D01*
X123250000Y-80948638D01*
X123230315Y-81015677D01*
X123213681Y-81036319D01*
X123036319Y-81213681D01*
X122974996Y-81247166D01*
X122948638Y-81250000D01*
X122438472Y-81250000D01*
X122380039Y-81233954D01*
X122379578Y-81234875D01*
X122297885Y-81193936D01*
X121826204Y-81036709D01*
X121809962Y-81029981D01*
X121767998Y-81008999D01*
X121735771Y-80985771D01*
X121697348Y-80947348D01*
X121674120Y-80915121D01*
X121568591Y-80704062D01*
X121555500Y-80648608D01*
X121555500Y-79029271D01*
X121549668Y-78979188D01*
X121547327Y-78959082D01*
X121534236Y-78903628D01*
X121510157Y-78837194D01*
X121510155Y-78837191D01*
X121510152Y-78837181D01*
X121510060Y-78836966D01*
X121510041Y-78836874D01*
X121508932Y-78833814D01*
X121509378Y-78833652D01*
X121500000Y-78788042D01*
X121500000Y-78250000D01*
X121003081Y-77852465D01*
X120988285Y-77838489D01*
X120967722Y-77815586D01*
X120926551Y-77777447D01*
X120926550Y-77777446D01*
X120890565Y-77759149D01*
X120869306Y-77745445D01*
X120296538Y-77287230D01*
X120256486Y-77229979D01*
X120250000Y-77190402D01*
X120250000Y-72779272D01*
X120263091Y-72723818D01*
X120452977Y-72344046D01*
X120500564Y-72292887D01*
X120563886Y-72275500D01*
X120934402Y-72275500D01*
X121017846Y-72265479D01*
X121035176Y-72258645D01*
X121080665Y-72250000D01*
X121249999Y-72250000D01*
X121250000Y-72250000D01*
X121500000Y-71750000D01*
X121500000Y-71279272D01*
X121513091Y-71223818D01*
X121715727Y-70818546D01*
X121763314Y-70767387D01*
X121826636Y-70750000D01*
X122698638Y-70750000D01*
X122765677Y-70769685D01*
G37*
%TD.AperFunction*%
%TD*%
%TA.AperFunction,Conductor*%
%TO.N,GND*%
G36*
X120740403Y-78019685D02*
G01*
X120784273Y-78068546D01*
X121236909Y-78973818D01*
X121250000Y-79029272D01*
X121250000Y-80750000D01*
X121500000Y-81250000D01*
X122201274Y-81483758D01*
X122258648Y-81523631D01*
X122272970Y-81545940D01*
X122368455Y-81736909D01*
X122486909Y-81973818D01*
X122500000Y-82029272D01*
X122500000Y-82820113D01*
X122480315Y-82887152D01*
X122463681Y-82907794D01*
X121407794Y-83963681D01*
X121346471Y-83997166D01*
X121320113Y-84000000D01*
X120041333Y-84000000D01*
X119974294Y-83980315D01*
X119966933Y-83975200D01*
X119951574Y-83963681D01*
X119049600Y-83287200D01*
X119007779Y-83231229D01*
X119000000Y-83188000D01*
X119000000Y-82499999D01*
X118500000Y-81750000D01*
X118000000Y-81750000D01*
X116529272Y-81750000D01*
X116473818Y-81736909D01*
X115568546Y-81284273D01*
X115517387Y-81236686D01*
X115500000Y-81173364D01*
X115500000Y-79816362D01*
X115519685Y-79749323D01*
X115555215Y-79713189D01*
X116218761Y-79270826D01*
X116285460Y-79250018D01*
X116287544Y-79250000D01*
X118500000Y-79250000D01*
X119462770Y-78046538D01*
X119520021Y-78006486D01*
X119559598Y-78000000D01*
X120673364Y-78000000D01*
X120740403Y-78019685D01*
G37*
%TD.AperFunction*%
%TD*%
%TA.AperFunction,Conductor*%
%TO.N,VBUS*%
G36*
X125500676Y-78519685D02*
G01*
X125536811Y-78555217D01*
X125979174Y-79218761D01*
X125999982Y-79285460D01*
X126000000Y-79287544D01*
X126000000Y-80948638D01*
X125980315Y-81015677D01*
X125963681Y-81036319D01*
X125536319Y-81463681D01*
X125474996Y-81497166D01*
X125448638Y-81500000D01*
X124500000Y-81500000D01*
X124500000Y-83448638D01*
X124480315Y-83515677D01*
X124463681Y-83536319D01*
X124286319Y-83713681D01*
X124224996Y-83747166D01*
X124198638Y-83750000D01*
X123051362Y-83750000D01*
X122984323Y-83730315D01*
X122963681Y-83713681D01*
X122786319Y-83536319D01*
X122752834Y-83474996D01*
X122750000Y-83448638D01*
X122750000Y-83049035D01*
X122763469Y-82992831D01*
X122773439Y-82973224D01*
X122793124Y-82906185D01*
X122805500Y-82820113D01*
X122805500Y-82029272D01*
X122797327Y-81959082D01*
X122784236Y-81903628D01*
X122765878Y-81852979D01*
X122761539Y-81783244D01*
X122795591Y-81722234D01*
X122813663Y-81707557D01*
X123069390Y-81537072D01*
X123099735Y-81522358D01*
X123121407Y-81515297D01*
X123182730Y-81481812D01*
X123252340Y-81429702D01*
X123287451Y-81394590D01*
X123306342Y-81379105D01*
X123500000Y-81250000D01*
X123500000Y-81177560D01*
X123513469Y-81121356D01*
X123523439Y-81101749D01*
X123543124Y-81034710D01*
X123555500Y-80948638D01*
X123555500Y-78995862D01*
X123575185Y-78928823D01*
X123591819Y-78908181D01*
X123963681Y-78536319D01*
X124025004Y-78502834D01*
X124051362Y-78500000D01*
X125433637Y-78500000D01*
X125500676Y-78519685D01*
G37*
%TD.AperFunction*%
%TD*%
M02*
