M48
; DRILL file {KiCad 8.0.2} date 2024-06-15T16:53:20+0200
; FORMAT={-:-/ absolute / metric / decimal}
; #@! TF.CreationDate,2024-06-15T16:53:20+02:00
; #@! TF.GenerationSoftware,Kicad,Pcbnew,8.0.2
; #@! TF.FileFunction,MixedPlating,1,2
FMAT,2
METRIC
; #@! TA.AperFunction,Plated,PTH,ViaDrill
T1C0.300
; #@! TA.AperFunction,Plated,PTH,ComponentDrill
T2C0.650
; #@! TA.AperFunction,Plated,PTH,ComponentDrill
T3C0.800
; #@! TA.AperFunction,Plated,PTH,ComponentDrill
T4C1.500
; #@! TA.AperFunction,NonPlated,NPTH,ComponentDrill
T5C1.000
; #@! TA.AperFunction,NonPlated,NPTH,ComponentDrill
T6C2.200
%
G90
G05
T1
X96.0Y-66.25
X98.54Y-63.01
X102.25Y-57.75
X103.0Y-67.25
X104.25Y-61.5
X104.363Y-69.613
X105.875Y-74.0
X106.239Y-81.49
X106.91Y-82.09
X107.275Y-74.0
X109.75Y-69.7
X111.18Y-75.0
X111.7Y-62.05
X112.5Y-57.0
X112.58Y-78.0
X112.58Y-79.0
X116.0Y-80.0
X116.0Y-80.75
X116.2Y-75.25
X118.25Y-62.5
X118.25Y-64.375
X119.5Y-78.5
X120.25Y-82.25
X120.25Y-83.0
X120.5Y-78.5
T2
X94.19Y-84.0
X95.46Y-84.0
X96.73Y-84.0
X98.0Y-84.0
X106.0Y-84.0
X107.27Y-84.0
X108.54Y-84.0
X109.81Y-84.0
X109.86Y-54.0
X111.08Y-84.0
X111.13Y-54.0
X112.35Y-84.0
X112.4Y-54.0
X113.62Y-84.0
X113.67Y-54.0
T3
X92.325Y-61.55
X92.325Y-66.43
X93.0Y-54.25
X95.0Y-54.25
X97.0Y-54.25
T4
X90.9Y-54.25
X99.1Y-54.25
T5
X123.425Y-61.0
X123.425Y-65.4
T6
X86.25Y-83.98
X86.28Y-53.0
X127.46Y-83.98
X127.5Y-53.0
M30
