%TF.GenerationSoftware,KiCad,Pcbnew,8.0.2*%
%TF.CreationDate,2024-06-15T16:53:24+02:00*%
%TF.ProjectId,KiCad_STM32_F105RCT6TR,4b694361-645f-4535-944d-33325f463130,v 1.0*%
%TF.SameCoordinates,Original*%
%TF.FileFunction,Legend,Top*%
%TF.FilePolarity,Positive*%
%FSLAX46Y46*%
G04 Gerber Fmt 4.6, Leading zero omitted, Abs format (unit mm)*
G04 Created by KiCad (PCBNEW 8.0.2) date 2024-06-15 16:53:24*
%MOMM*%
%LPD*%
G01*
G04 APERTURE LIST*
%ADD10C,0.100000*%
%ADD11C,0.150000*%
%ADD12C,0.112500*%
%ADD13C,0.120000*%
G04 APERTURE END LIST*
D10*
X113433609Y-52362782D02*
X113433609Y-52053258D01*
X113433609Y-52053258D02*
X113624085Y-52219925D01*
X113624085Y-52219925D02*
X113624085Y-52148496D01*
X113624085Y-52148496D02*
X113647895Y-52100877D01*
X113647895Y-52100877D02*
X113671704Y-52077068D01*
X113671704Y-52077068D02*
X113719323Y-52053258D01*
X113719323Y-52053258D02*
X113838371Y-52053258D01*
X113838371Y-52053258D02*
X113885990Y-52077068D01*
X113885990Y-52077068D02*
X113909800Y-52100877D01*
X113909800Y-52100877D02*
X113933609Y-52148496D01*
X113933609Y-52148496D02*
X113933609Y-52291353D01*
X113933609Y-52291353D02*
X113909800Y-52338972D01*
X113909800Y-52338972D02*
X113885990Y-52362782D01*
X113909800Y-51815163D02*
X113933609Y-51815163D01*
X113933609Y-51815163D02*
X113981228Y-51838973D01*
X113981228Y-51838973D02*
X114005038Y-51862782D01*
X113433609Y-51648497D02*
X113433609Y-51338973D01*
X113433609Y-51338973D02*
X113624085Y-51505640D01*
X113624085Y-51505640D02*
X113624085Y-51434211D01*
X113624085Y-51434211D02*
X113647895Y-51386592D01*
X113647895Y-51386592D02*
X113671704Y-51362783D01*
X113671704Y-51362783D02*
X113719323Y-51338973D01*
X113719323Y-51338973D02*
X113838371Y-51338973D01*
X113838371Y-51338973D02*
X113885990Y-51362783D01*
X113885990Y-51362783D02*
X113909800Y-51386592D01*
X113909800Y-51386592D02*
X113933609Y-51434211D01*
X113933609Y-51434211D02*
X113933609Y-51577068D01*
X113933609Y-51577068D02*
X113909800Y-51624687D01*
X113909800Y-51624687D02*
X113885990Y-51648497D01*
X113433609Y-51196116D02*
X113933609Y-51029450D01*
X113933609Y-51029450D02*
X113433609Y-50862783D01*
X112659800Y-52338972D02*
X112683609Y-52267544D01*
X112683609Y-52267544D02*
X112683609Y-52148496D01*
X112683609Y-52148496D02*
X112659800Y-52100877D01*
X112659800Y-52100877D02*
X112635990Y-52077068D01*
X112635990Y-52077068D02*
X112588371Y-52053258D01*
X112588371Y-52053258D02*
X112540752Y-52053258D01*
X112540752Y-52053258D02*
X112493133Y-52077068D01*
X112493133Y-52077068D02*
X112469323Y-52100877D01*
X112469323Y-52100877D02*
X112445514Y-52148496D01*
X112445514Y-52148496D02*
X112421704Y-52243734D01*
X112421704Y-52243734D02*
X112397895Y-52291353D01*
X112397895Y-52291353D02*
X112374085Y-52315163D01*
X112374085Y-52315163D02*
X112326466Y-52338972D01*
X112326466Y-52338972D02*
X112278847Y-52338972D01*
X112278847Y-52338972D02*
X112231228Y-52315163D01*
X112231228Y-52315163D02*
X112207419Y-52291353D01*
X112207419Y-52291353D02*
X112183609Y-52243734D01*
X112183609Y-52243734D02*
X112183609Y-52124687D01*
X112183609Y-52124687D02*
X112207419Y-52053258D01*
X112183609Y-51886592D02*
X112683609Y-51767544D01*
X112683609Y-51767544D02*
X112326466Y-51672306D01*
X112326466Y-51672306D02*
X112683609Y-51577068D01*
X112683609Y-51577068D02*
X112183609Y-51458021D01*
X112683609Y-51267544D02*
X112183609Y-51267544D01*
X112183609Y-51267544D02*
X112183609Y-51148496D01*
X112183609Y-51148496D02*
X112207419Y-51077068D01*
X112207419Y-51077068D02*
X112255038Y-51029449D01*
X112255038Y-51029449D02*
X112302657Y-51005639D01*
X112302657Y-51005639D02*
X112397895Y-50981830D01*
X112397895Y-50981830D02*
X112469323Y-50981830D01*
X112469323Y-50981830D02*
X112564561Y-51005639D01*
X112564561Y-51005639D02*
X112612180Y-51029449D01*
X112612180Y-51029449D02*
X112659800Y-51077068D01*
X112659800Y-51077068D02*
X112683609Y-51148496D01*
X112683609Y-51148496D02*
X112683609Y-51267544D01*
X112683609Y-50767544D02*
X112183609Y-50767544D01*
X112183609Y-50434211D02*
X112183609Y-50338973D01*
X112183609Y-50338973D02*
X112207419Y-50291354D01*
X112207419Y-50291354D02*
X112255038Y-50243735D01*
X112255038Y-50243735D02*
X112350276Y-50219925D01*
X112350276Y-50219925D02*
X112516942Y-50219925D01*
X112516942Y-50219925D02*
X112612180Y-50243735D01*
X112612180Y-50243735D02*
X112659800Y-50291354D01*
X112659800Y-50291354D02*
X112683609Y-50338973D01*
X112683609Y-50338973D02*
X112683609Y-50434211D01*
X112683609Y-50434211D02*
X112659800Y-50481830D01*
X112659800Y-50481830D02*
X112612180Y-50529449D01*
X112612180Y-50529449D02*
X112516942Y-50553258D01*
X112516942Y-50553258D02*
X112350276Y-50553258D01*
X112350276Y-50553258D02*
X112255038Y-50529449D01*
X112255038Y-50529449D02*
X112207419Y-50481830D01*
X112207419Y-50481830D02*
X112183609Y-50434211D01*
X111409800Y-52338972D02*
X111433609Y-52267544D01*
X111433609Y-52267544D02*
X111433609Y-52148496D01*
X111433609Y-52148496D02*
X111409800Y-52100877D01*
X111409800Y-52100877D02*
X111385990Y-52077068D01*
X111385990Y-52077068D02*
X111338371Y-52053258D01*
X111338371Y-52053258D02*
X111290752Y-52053258D01*
X111290752Y-52053258D02*
X111243133Y-52077068D01*
X111243133Y-52077068D02*
X111219323Y-52100877D01*
X111219323Y-52100877D02*
X111195514Y-52148496D01*
X111195514Y-52148496D02*
X111171704Y-52243734D01*
X111171704Y-52243734D02*
X111147895Y-52291353D01*
X111147895Y-52291353D02*
X111124085Y-52315163D01*
X111124085Y-52315163D02*
X111076466Y-52338972D01*
X111076466Y-52338972D02*
X111028847Y-52338972D01*
X111028847Y-52338972D02*
X110981228Y-52315163D01*
X110981228Y-52315163D02*
X110957419Y-52291353D01*
X110957419Y-52291353D02*
X110933609Y-52243734D01*
X110933609Y-52243734D02*
X110933609Y-52124687D01*
X110933609Y-52124687D02*
X110957419Y-52053258D01*
X110933609Y-51886592D02*
X111433609Y-51767544D01*
X111433609Y-51767544D02*
X111076466Y-51672306D01*
X111076466Y-51672306D02*
X111433609Y-51577068D01*
X111433609Y-51577068D02*
X110933609Y-51458021D01*
X111385990Y-50981830D02*
X111409800Y-51005639D01*
X111409800Y-51005639D02*
X111433609Y-51077068D01*
X111433609Y-51077068D02*
X111433609Y-51124687D01*
X111433609Y-51124687D02*
X111409800Y-51196115D01*
X111409800Y-51196115D02*
X111362180Y-51243734D01*
X111362180Y-51243734D02*
X111314561Y-51267544D01*
X111314561Y-51267544D02*
X111219323Y-51291353D01*
X111219323Y-51291353D02*
X111147895Y-51291353D01*
X111147895Y-51291353D02*
X111052657Y-51267544D01*
X111052657Y-51267544D02*
X111005038Y-51243734D01*
X111005038Y-51243734D02*
X110957419Y-51196115D01*
X110957419Y-51196115D02*
X110933609Y-51124687D01*
X110933609Y-51124687D02*
X110933609Y-51077068D01*
X110933609Y-51077068D02*
X110957419Y-51005639D01*
X110957419Y-51005639D02*
X110981228Y-50981830D01*
X111433609Y-50529449D02*
X111433609Y-50767544D01*
X111433609Y-50767544D02*
X110933609Y-50767544D01*
X111433609Y-50362782D02*
X110933609Y-50362782D01*
X111433609Y-50077068D02*
X111147895Y-50291353D01*
X110933609Y-50077068D02*
X111219323Y-50362782D01*
X109707419Y-52053258D02*
X109683609Y-52100877D01*
X109683609Y-52100877D02*
X109683609Y-52172306D01*
X109683609Y-52172306D02*
X109707419Y-52243734D01*
X109707419Y-52243734D02*
X109755038Y-52291353D01*
X109755038Y-52291353D02*
X109802657Y-52315163D01*
X109802657Y-52315163D02*
X109897895Y-52338972D01*
X109897895Y-52338972D02*
X109969323Y-52338972D01*
X109969323Y-52338972D02*
X110064561Y-52315163D01*
X110064561Y-52315163D02*
X110112180Y-52291353D01*
X110112180Y-52291353D02*
X110159800Y-52243734D01*
X110159800Y-52243734D02*
X110183609Y-52172306D01*
X110183609Y-52172306D02*
X110183609Y-52124687D01*
X110183609Y-52124687D02*
X110159800Y-52053258D01*
X110159800Y-52053258D02*
X110135990Y-52029449D01*
X110135990Y-52029449D02*
X109969323Y-52029449D01*
X109969323Y-52029449D02*
X109969323Y-52124687D01*
X110183609Y-51815163D02*
X109683609Y-51815163D01*
X109683609Y-51815163D02*
X110183609Y-51529449D01*
X110183609Y-51529449D02*
X109683609Y-51529449D01*
X110183609Y-51291353D02*
X109683609Y-51291353D01*
X109683609Y-51291353D02*
X109683609Y-51172305D01*
X109683609Y-51172305D02*
X109707419Y-51100877D01*
X109707419Y-51100877D02*
X109755038Y-51053258D01*
X109755038Y-51053258D02*
X109802657Y-51029448D01*
X109802657Y-51029448D02*
X109897895Y-51005639D01*
X109897895Y-51005639D02*
X109969323Y-51005639D01*
X109969323Y-51005639D02*
X110064561Y-51029448D01*
X110064561Y-51029448D02*
X110112180Y-51053258D01*
X110112180Y-51053258D02*
X110159800Y-51100877D01*
X110159800Y-51100877D02*
X110183609Y-51172305D01*
X110183609Y-51172305D02*
X110183609Y-51291353D01*
X117053884Y-51622419D02*
X117053884Y-50622419D01*
X117053884Y-50622419D02*
X117434836Y-50622419D01*
X117434836Y-50622419D02*
X117530074Y-50670038D01*
X117530074Y-50670038D02*
X117577693Y-50717657D01*
X117577693Y-50717657D02*
X117625312Y-50812895D01*
X117625312Y-50812895D02*
X117625312Y-50955752D01*
X117625312Y-50955752D02*
X117577693Y-51050990D01*
X117577693Y-51050990D02*
X117530074Y-51098609D01*
X117530074Y-51098609D02*
X117434836Y-51146228D01*
X117434836Y-51146228D02*
X117053884Y-51146228D01*
X118053884Y-51622419D02*
X118053884Y-50955752D01*
X118053884Y-50622419D02*
X118006265Y-50670038D01*
X118006265Y-50670038D02*
X118053884Y-50717657D01*
X118053884Y-50717657D02*
X118101503Y-50670038D01*
X118101503Y-50670038D02*
X118053884Y-50622419D01*
X118053884Y-50622419D02*
X118053884Y-50717657D01*
X118672931Y-51622419D02*
X118577693Y-51574800D01*
X118577693Y-51574800D02*
X118530074Y-51527180D01*
X118530074Y-51527180D02*
X118482455Y-51431942D01*
X118482455Y-51431942D02*
X118482455Y-51146228D01*
X118482455Y-51146228D02*
X118530074Y-51050990D01*
X118530074Y-51050990D02*
X118577693Y-51003371D01*
X118577693Y-51003371D02*
X118672931Y-50955752D01*
X118672931Y-50955752D02*
X118815788Y-50955752D01*
X118815788Y-50955752D02*
X118911026Y-51003371D01*
X118911026Y-51003371D02*
X118958645Y-51050990D01*
X118958645Y-51050990D02*
X119006264Y-51146228D01*
X119006264Y-51146228D02*
X119006264Y-51431942D01*
X119006264Y-51431942D02*
X118958645Y-51527180D01*
X118958645Y-51527180D02*
X118911026Y-51574800D01*
X118911026Y-51574800D02*
X118815788Y-51622419D01*
X118815788Y-51622419D02*
X118672931Y-51622419D01*
X119291979Y-50955752D02*
X119672931Y-50955752D01*
X119434836Y-50622419D02*
X119434836Y-51479561D01*
X119434836Y-51479561D02*
X119482455Y-51574800D01*
X119482455Y-51574800D02*
X119577693Y-51622419D01*
X119577693Y-51622419D02*
X119672931Y-51622419D01*
X120006265Y-51622419D02*
X120006265Y-50955752D01*
X120006265Y-51146228D02*
X120053884Y-51050990D01*
X120053884Y-51050990D02*
X120101503Y-51003371D01*
X120101503Y-51003371D02*
X120196741Y-50955752D01*
X120196741Y-50955752D02*
X120291979Y-50955752D01*
X121291980Y-50622419D02*
X121530075Y-51622419D01*
X121530075Y-51622419D02*
X121720551Y-50908133D01*
X121720551Y-50908133D02*
X121911027Y-51622419D01*
X121911027Y-51622419D02*
X122149123Y-50622419D01*
X122530075Y-51622419D02*
X122530075Y-50955752D01*
X122530075Y-50622419D02*
X122482456Y-50670038D01*
X122482456Y-50670038D02*
X122530075Y-50717657D01*
X122530075Y-50717657D02*
X122577694Y-50670038D01*
X122577694Y-50670038D02*
X122530075Y-50622419D01*
X122530075Y-50622419D02*
X122530075Y-50717657D01*
X122958646Y-51574800D02*
X123053884Y-51622419D01*
X123053884Y-51622419D02*
X123244360Y-51622419D01*
X123244360Y-51622419D02*
X123339598Y-51574800D01*
X123339598Y-51574800D02*
X123387217Y-51479561D01*
X123387217Y-51479561D02*
X123387217Y-51431942D01*
X123387217Y-51431942D02*
X123339598Y-51336704D01*
X123339598Y-51336704D02*
X123244360Y-51289085D01*
X123244360Y-51289085D02*
X123101503Y-51289085D01*
X123101503Y-51289085D02*
X123006265Y-51241466D01*
X123006265Y-51241466D02*
X122958646Y-51146228D01*
X122958646Y-51146228D02*
X122958646Y-51098609D01*
X122958646Y-51098609D02*
X123006265Y-51003371D01*
X123006265Y-51003371D02*
X123101503Y-50955752D01*
X123101503Y-50955752D02*
X123244360Y-50955752D01*
X123244360Y-50955752D02*
X123339598Y-51003371D01*
X123815789Y-51622419D02*
X123815789Y-50622419D01*
X123911027Y-51241466D02*
X124196741Y-51622419D01*
X124196741Y-50955752D02*
X123815789Y-51336704D01*
X124625313Y-51622419D02*
X124625313Y-50955752D01*
X124625313Y-50622419D02*
X124577694Y-50670038D01*
X124577694Y-50670038D02*
X124625313Y-50717657D01*
X124625313Y-50717657D02*
X124672932Y-50670038D01*
X124672932Y-50670038D02*
X124625313Y-50622419D01*
X124625313Y-50622419D02*
X124625313Y-50717657D01*
X85762475Y-79696115D02*
X84762475Y-79696115D01*
X84762475Y-79696115D02*
X84762475Y-79315163D01*
X84762475Y-79315163D02*
X84810094Y-79219925D01*
X84810094Y-79219925D02*
X84857713Y-79172306D01*
X84857713Y-79172306D02*
X84952951Y-79124687D01*
X84952951Y-79124687D02*
X85095808Y-79124687D01*
X85095808Y-79124687D02*
X85191046Y-79172306D01*
X85191046Y-79172306D02*
X85238665Y-79219925D01*
X85238665Y-79219925D02*
X85286284Y-79315163D01*
X85286284Y-79315163D02*
X85286284Y-79696115D01*
X85095808Y-78267544D02*
X85762475Y-78267544D01*
X85095808Y-78696115D02*
X85619617Y-78696115D01*
X85619617Y-78696115D02*
X85714856Y-78648496D01*
X85714856Y-78648496D02*
X85762475Y-78553258D01*
X85762475Y-78553258D02*
X85762475Y-78410401D01*
X85762475Y-78410401D02*
X85714856Y-78315163D01*
X85714856Y-78315163D02*
X85667236Y-78267544D01*
X85762475Y-77648496D02*
X85714856Y-77743734D01*
X85714856Y-77743734D02*
X85619617Y-77791353D01*
X85619617Y-77791353D02*
X84762475Y-77791353D01*
X85714856Y-77315162D02*
X85762475Y-77219924D01*
X85762475Y-77219924D02*
X85762475Y-77029448D01*
X85762475Y-77029448D02*
X85714856Y-76934210D01*
X85714856Y-76934210D02*
X85619617Y-76886591D01*
X85619617Y-76886591D02*
X85571998Y-76886591D01*
X85571998Y-76886591D02*
X85476760Y-76934210D01*
X85476760Y-76934210D02*
X85429141Y-77029448D01*
X85429141Y-77029448D02*
X85429141Y-77172305D01*
X85429141Y-77172305D02*
X85381522Y-77267543D01*
X85381522Y-77267543D02*
X85286284Y-77315162D01*
X85286284Y-77315162D02*
X85238665Y-77315162D01*
X85238665Y-77315162D02*
X85143427Y-77267543D01*
X85143427Y-77267543D02*
X85095808Y-77172305D01*
X85095808Y-77172305D02*
X85095808Y-77029448D01*
X85095808Y-77029448D02*
X85143427Y-76934210D01*
X85714856Y-76077067D02*
X85762475Y-76172305D01*
X85762475Y-76172305D02*
X85762475Y-76362781D01*
X85762475Y-76362781D02*
X85714856Y-76458019D01*
X85714856Y-76458019D02*
X85619617Y-76505638D01*
X85619617Y-76505638D02*
X85238665Y-76505638D01*
X85238665Y-76505638D02*
X85143427Y-76458019D01*
X85143427Y-76458019D02*
X85095808Y-76362781D01*
X85095808Y-76362781D02*
X85095808Y-76172305D01*
X85095808Y-76172305D02*
X85143427Y-76077067D01*
X85143427Y-76077067D02*
X85238665Y-76029448D01*
X85238665Y-76029448D02*
X85333903Y-76029448D01*
X85333903Y-76029448D02*
X85429141Y-76505638D01*
X85762475Y-74410400D02*
X85238665Y-74410400D01*
X85238665Y-74410400D02*
X85143427Y-74458019D01*
X85143427Y-74458019D02*
X85095808Y-74553257D01*
X85095808Y-74553257D02*
X85095808Y-74743733D01*
X85095808Y-74743733D02*
X85143427Y-74838971D01*
X85714856Y-74410400D02*
X85762475Y-74505638D01*
X85762475Y-74505638D02*
X85762475Y-74743733D01*
X85762475Y-74743733D02*
X85714856Y-74838971D01*
X85714856Y-74838971D02*
X85619617Y-74886590D01*
X85619617Y-74886590D02*
X85524379Y-74886590D01*
X85524379Y-74886590D02*
X85429141Y-74838971D01*
X85429141Y-74838971D02*
X85381522Y-74743733D01*
X85381522Y-74743733D02*
X85381522Y-74505638D01*
X85381522Y-74505638D02*
X85333903Y-74410400D01*
X85095808Y-73934209D02*
X85762475Y-73934209D01*
X85191046Y-73934209D02*
X85143427Y-73886590D01*
X85143427Y-73886590D02*
X85095808Y-73791352D01*
X85095808Y-73791352D02*
X85095808Y-73648495D01*
X85095808Y-73648495D02*
X85143427Y-73553257D01*
X85143427Y-73553257D02*
X85238665Y-73505638D01*
X85238665Y-73505638D02*
X85762475Y-73505638D01*
X85762475Y-72600876D02*
X84762475Y-72600876D01*
X85714856Y-72600876D02*
X85762475Y-72696114D01*
X85762475Y-72696114D02*
X85762475Y-72886590D01*
X85762475Y-72886590D02*
X85714856Y-72981828D01*
X85714856Y-72981828D02*
X85667236Y-73029447D01*
X85667236Y-73029447D02*
X85571998Y-73077066D01*
X85571998Y-73077066D02*
X85286284Y-73077066D01*
X85286284Y-73077066D02*
X85191046Y-73029447D01*
X85191046Y-73029447D02*
X85143427Y-72981828D01*
X85143427Y-72981828D02*
X85095808Y-72886590D01*
X85095808Y-72886590D02*
X85095808Y-72696114D01*
X85095808Y-72696114D02*
X85143427Y-72600876D01*
X85762475Y-71219923D02*
X85714856Y-71315161D01*
X85714856Y-71315161D02*
X85667236Y-71362780D01*
X85667236Y-71362780D02*
X85571998Y-71410399D01*
X85571998Y-71410399D02*
X85286284Y-71410399D01*
X85286284Y-71410399D02*
X85191046Y-71362780D01*
X85191046Y-71362780D02*
X85143427Y-71315161D01*
X85143427Y-71315161D02*
X85095808Y-71219923D01*
X85095808Y-71219923D02*
X85095808Y-71077066D01*
X85095808Y-71077066D02*
X85143427Y-70981828D01*
X85143427Y-70981828D02*
X85191046Y-70934209D01*
X85191046Y-70934209D02*
X85286284Y-70886590D01*
X85286284Y-70886590D02*
X85571998Y-70886590D01*
X85571998Y-70886590D02*
X85667236Y-70934209D01*
X85667236Y-70934209D02*
X85714856Y-70981828D01*
X85714856Y-70981828D02*
X85762475Y-71077066D01*
X85762475Y-71077066D02*
X85762475Y-71219923D01*
X85762475Y-70553256D02*
X85095808Y-70029447D01*
X85095808Y-70553256D02*
X85762475Y-70029447D01*
X85095808Y-69743732D02*
X85762475Y-69505637D01*
X85095808Y-69267542D02*
X85762475Y-69505637D01*
X85762475Y-69505637D02*
X86000570Y-69600875D01*
X86000570Y-69600875D02*
X86048189Y-69648494D01*
X86048189Y-69648494D02*
X86095808Y-69743732D01*
X85095808Y-68458018D02*
X85905332Y-68458018D01*
X85905332Y-68458018D02*
X86000570Y-68505637D01*
X86000570Y-68505637D02*
X86048189Y-68553256D01*
X86048189Y-68553256D02*
X86095808Y-68648494D01*
X86095808Y-68648494D02*
X86095808Y-68791351D01*
X86095808Y-68791351D02*
X86048189Y-68886589D01*
X85714856Y-68458018D02*
X85762475Y-68553256D01*
X85762475Y-68553256D02*
X85762475Y-68743732D01*
X85762475Y-68743732D02*
X85714856Y-68838970D01*
X85714856Y-68838970D02*
X85667236Y-68886589D01*
X85667236Y-68886589D02*
X85571998Y-68934208D01*
X85571998Y-68934208D02*
X85286284Y-68934208D01*
X85286284Y-68934208D02*
X85191046Y-68886589D01*
X85191046Y-68886589D02*
X85143427Y-68838970D01*
X85143427Y-68838970D02*
X85095808Y-68743732D01*
X85095808Y-68743732D02*
X85095808Y-68553256D01*
X85095808Y-68553256D02*
X85143427Y-68458018D01*
X85714856Y-67600875D02*
X85762475Y-67696113D01*
X85762475Y-67696113D02*
X85762475Y-67886589D01*
X85762475Y-67886589D02*
X85714856Y-67981827D01*
X85714856Y-67981827D02*
X85619617Y-68029446D01*
X85619617Y-68029446D02*
X85238665Y-68029446D01*
X85238665Y-68029446D02*
X85143427Y-67981827D01*
X85143427Y-67981827D02*
X85095808Y-67886589D01*
X85095808Y-67886589D02*
X85095808Y-67696113D01*
X85095808Y-67696113D02*
X85143427Y-67600875D01*
X85143427Y-67600875D02*
X85238665Y-67553256D01*
X85238665Y-67553256D02*
X85333903Y-67553256D01*
X85333903Y-67553256D02*
X85429141Y-68029446D01*
X85095808Y-67124684D02*
X85762475Y-67124684D01*
X85191046Y-67124684D02*
X85143427Y-67077065D01*
X85143427Y-67077065D02*
X85095808Y-66981827D01*
X85095808Y-66981827D02*
X85095808Y-66838970D01*
X85095808Y-66838970D02*
X85143427Y-66743732D01*
X85143427Y-66743732D02*
X85238665Y-66696113D01*
X85238665Y-66696113D02*
X85762475Y-66696113D01*
X85762475Y-65791351D02*
X85238665Y-65791351D01*
X85238665Y-65791351D02*
X85143427Y-65838970D01*
X85143427Y-65838970D02*
X85095808Y-65934208D01*
X85095808Y-65934208D02*
X85095808Y-66124684D01*
X85095808Y-66124684D02*
X85143427Y-66219922D01*
X85714856Y-65791351D02*
X85762475Y-65886589D01*
X85762475Y-65886589D02*
X85762475Y-66124684D01*
X85762475Y-66124684D02*
X85714856Y-66219922D01*
X85714856Y-66219922D02*
X85619617Y-66267541D01*
X85619617Y-66267541D02*
X85524379Y-66267541D01*
X85524379Y-66267541D02*
X85429141Y-66219922D01*
X85429141Y-66219922D02*
X85381522Y-66124684D01*
X85381522Y-66124684D02*
X85381522Y-65886589D01*
X85381522Y-65886589D02*
X85333903Y-65791351D01*
X85095808Y-65458017D02*
X85095808Y-65077065D01*
X84762475Y-65315160D02*
X85619617Y-65315160D01*
X85619617Y-65315160D02*
X85714856Y-65267541D01*
X85714856Y-65267541D02*
X85762475Y-65172303D01*
X85762475Y-65172303D02*
X85762475Y-65077065D01*
X85762475Y-64743731D02*
X85095808Y-64743731D01*
X84762475Y-64743731D02*
X84810094Y-64791350D01*
X84810094Y-64791350D02*
X84857713Y-64743731D01*
X84857713Y-64743731D02*
X84810094Y-64696112D01*
X84810094Y-64696112D02*
X84762475Y-64743731D01*
X84762475Y-64743731D02*
X84857713Y-64743731D01*
X85762475Y-64124684D02*
X85714856Y-64219922D01*
X85714856Y-64219922D02*
X85667236Y-64267541D01*
X85667236Y-64267541D02*
X85571998Y-64315160D01*
X85571998Y-64315160D02*
X85286284Y-64315160D01*
X85286284Y-64315160D02*
X85191046Y-64267541D01*
X85191046Y-64267541D02*
X85143427Y-64219922D01*
X85143427Y-64219922D02*
X85095808Y-64124684D01*
X85095808Y-64124684D02*
X85095808Y-63981827D01*
X85095808Y-63981827D02*
X85143427Y-63886589D01*
X85143427Y-63886589D02*
X85191046Y-63838970D01*
X85191046Y-63838970D02*
X85286284Y-63791351D01*
X85286284Y-63791351D02*
X85571998Y-63791351D01*
X85571998Y-63791351D02*
X85667236Y-63838970D01*
X85667236Y-63838970D02*
X85714856Y-63886589D01*
X85714856Y-63886589D02*
X85762475Y-63981827D01*
X85762475Y-63981827D02*
X85762475Y-64124684D01*
X85095808Y-63362779D02*
X85762475Y-63362779D01*
X85191046Y-63362779D02*
X85143427Y-63315160D01*
X85143427Y-63315160D02*
X85095808Y-63219922D01*
X85095808Y-63219922D02*
X85095808Y-63077065D01*
X85095808Y-63077065D02*
X85143427Y-62981827D01*
X85143427Y-62981827D02*
X85238665Y-62934208D01*
X85238665Y-62934208D02*
X85762475Y-62934208D01*
X87372419Y-79124687D02*
X86896228Y-79458020D01*
X87372419Y-79696115D02*
X86372419Y-79696115D01*
X86372419Y-79696115D02*
X86372419Y-79315163D01*
X86372419Y-79315163D02*
X86420038Y-79219925D01*
X86420038Y-79219925D02*
X86467657Y-79172306D01*
X86467657Y-79172306D02*
X86562895Y-79124687D01*
X86562895Y-79124687D02*
X86705752Y-79124687D01*
X86705752Y-79124687D02*
X86800990Y-79172306D01*
X86800990Y-79172306D02*
X86848609Y-79219925D01*
X86848609Y-79219925D02*
X86896228Y-79315163D01*
X86896228Y-79315163D02*
X86896228Y-79696115D01*
X87324800Y-78315163D02*
X87372419Y-78410401D01*
X87372419Y-78410401D02*
X87372419Y-78600877D01*
X87372419Y-78600877D02*
X87324800Y-78696115D01*
X87324800Y-78696115D02*
X87229561Y-78743734D01*
X87229561Y-78743734D02*
X86848609Y-78743734D01*
X86848609Y-78743734D02*
X86753371Y-78696115D01*
X86753371Y-78696115D02*
X86705752Y-78600877D01*
X86705752Y-78600877D02*
X86705752Y-78410401D01*
X86705752Y-78410401D02*
X86753371Y-78315163D01*
X86753371Y-78315163D02*
X86848609Y-78267544D01*
X86848609Y-78267544D02*
X86943847Y-78267544D01*
X86943847Y-78267544D02*
X87039085Y-78743734D01*
X86705752Y-77934210D02*
X87372419Y-77696115D01*
X87372419Y-77696115D02*
X86705752Y-77458020D01*
X87372419Y-75791353D02*
X87372419Y-76362781D01*
X87372419Y-76077067D02*
X86372419Y-76077067D01*
X86372419Y-76077067D02*
X86515276Y-76172305D01*
X86515276Y-76172305D02*
X86610514Y-76267543D01*
X86610514Y-76267543D02*
X86658133Y-76362781D01*
X87277180Y-75362781D02*
X87324800Y-75315162D01*
X87324800Y-75315162D02*
X87372419Y-75362781D01*
X87372419Y-75362781D02*
X87324800Y-75410400D01*
X87324800Y-75410400D02*
X87277180Y-75362781D01*
X87277180Y-75362781D02*
X87372419Y-75362781D01*
X86372419Y-74696115D02*
X86372419Y-74600877D01*
X86372419Y-74600877D02*
X86420038Y-74505639D01*
X86420038Y-74505639D02*
X86467657Y-74458020D01*
X86467657Y-74458020D02*
X86562895Y-74410401D01*
X86562895Y-74410401D02*
X86753371Y-74362782D01*
X86753371Y-74362782D02*
X86991466Y-74362782D01*
X86991466Y-74362782D02*
X87181942Y-74410401D01*
X87181942Y-74410401D02*
X87277180Y-74458020D01*
X87277180Y-74458020D02*
X87324800Y-74505639D01*
X87324800Y-74505639D02*
X87372419Y-74600877D01*
X87372419Y-74600877D02*
X87372419Y-74696115D01*
X87372419Y-74696115D02*
X87324800Y-74791353D01*
X87324800Y-74791353D02*
X87277180Y-74838972D01*
X87277180Y-74838972D02*
X87181942Y-74886591D01*
X87181942Y-74886591D02*
X86991466Y-74934210D01*
X86991466Y-74934210D02*
X86753371Y-74934210D01*
X86753371Y-74934210D02*
X86562895Y-74886591D01*
X86562895Y-74886591D02*
X86467657Y-74838972D01*
X86467657Y-74838972D02*
X86420038Y-74791353D01*
X86420038Y-74791353D02*
X86372419Y-74696115D01*
D11*
X105976190Y-57931009D02*
X105642857Y-57931009D01*
X105642857Y-58454819D02*
X105642857Y-57454819D01*
X105642857Y-57454819D02*
X106119047Y-57454819D01*
X107023809Y-58454819D02*
X106452381Y-58454819D01*
X106738095Y-58454819D02*
X106738095Y-57454819D01*
X106738095Y-57454819D02*
X106642857Y-57597676D01*
X106642857Y-57597676D02*
X106547619Y-57692914D01*
X106547619Y-57692914D02*
X106452381Y-57740533D01*
X107642857Y-57454819D02*
X107738095Y-57454819D01*
X107738095Y-57454819D02*
X107833333Y-57502438D01*
X107833333Y-57502438D02*
X107880952Y-57550057D01*
X107880952Y-57550057D02*
X107928571Y-57645295D01*
X107928571Y-57645295D02*
X107976190Y-57835771D01*
X107976190Y-57835771D02*
X107976190Y-58073866D01*
X107976190Y-58073866D02*
X107928571Y-58264342D01*
X107928571Y-58264342D02*
X107880952Y-58359580D01*
X107880952Y-58359580D02*
X107833333Y-58407200D01*
X107833333Y-58407200D02*
X107738095Y-58454819D01*
X107738095Y-58454819D02*
X107642857Y-58454819D01*
X107642857Y-58454819D02*
X107547619Y-58407200D01*
X107547619Y-58407200D02*
X107500000Y-58359580D01*
X107500000Y-58359580D02*
X107452381Y-58264342D01*
X107452381Y-58264342D02*
X107404762Y-58073866D01*
X107404762Y-58073866D02*
X107404762Y-57835771D01*
X107404762Y-57835771D02*
X107452381Y-57645295D01*
X107452381Y-57645295D02*
X107500000Y-57550057D01*
X107500000Y-57550057D02*
X107547619Y-57502438D01*
X107547619Y-57502438D02*
X107642857Y-57454819D01*
X108880952Y-57454819D02*
X108404762Y-57454819D01*
X108404762Y-57454819D02*
X108357143Y-57931009D01*
X108357143Y-57931009D02*
X108404762Y-57883390D01*
X108404762Y-57883390D02*
X108500000Y-57835771D01*
X108500000Y-57835771D02*
X108738095Y-57835771D01*
X108738095Y-57835771D02*
X108833333Y-57883390D01*
X108833333Y-57883390D02*
X108880952Y-57931009D01*
X108880952Y-57931009D02*
X108928571Y-58026247D01*
X108928571Y-58026247D02*
X108928571Y-58264342D01*
X108928571Y-58264342D02*
X108880952Y-58359580D01*
X108880952Y-58359580D02*
X108833333Y-58407200D01*
X108833333Y-58407200D02*
X108738095Y-58454819D01*
X108738095Y-58454819D02*
X108500000Y-58454819D01*
X108500000Y-58454819D02*
X108404762Y-58407200D01*
X108404762Y-58407200D02*
X108357143Y-58359580D01*
X109928571Y-58454819D02*
X109595238Y-57978628D01*
X109357143Y-58454819D02*
X109357143Y-57454819D01*
X109357143Y-57454819D02*
X109738095Y-57454819D01*
X109738095Y-57454819D02*
X109833333Y-57502438D01*
X109833333Y-57502438D02*
X109880952Y-57550057D01*
X109880952Y-57550057D02*
X109928571Y-57645295D01*
X109928571Y-57645295D02*
X109928571Y-57788152D01*
X109928571Y-57788152D02*
X109880952Y-57883390D01*
X109880952Y-57883390D02*
X109833333Y-57931009D01*
X109833333Y-57931009D02*
X109738095Y-57978628D01*
X109738095Y-57978628D02*
X109357143Y-57978628D01*
X110928571Y-58359580D02*
X110880952Y-58407200D01*
X110880952Y-58407200D02*
X110738095Y-58454819D01*
X110738095Y-58454819D02*
X110642857Y-58454819D01*
X110642857Y-58454819D02*
X110500000Y-58407200D01*
X110500000Y-58407200D02*
X110404762Y-58311961D01*
X110404762Y-58311961D02*
X110357143Y-58216723D01*
X110357143Y-58216723D02*
X110309524Y-58026247D01*
X110309524Y-58026247D02*
X110309524Y-57883390D01*
X110309524Y-57883390D02*
X110357143Y-57692914D01*
X110357143Y-57692914D02*
X110404762Y-57597676D01*
X110404762Y-57597676D02*
X110500000Y-57502438D01*
X110500000Y-57502438D02*
X110642857Y-57454819D01*
X110642857Y-57454819D02*
X110738095Y-57454819D01*
X110738095Y-57454819D02*
X110880952Y-57502438D01*
X110880952Y-57502438D02*
X110928571Y-57550057D01*
X111214286Y-57454819D02*
X111785714Y-57454819D01*
X111500000Y-58454819D02*
X111500000Y-57454819D01*
X112547619Y-57454819D02*
X112357143Y-57454819D01*
X112357143Y-57454819D02*
X112261905Y-57502438D01*
X112261905Y-57502438D02*
X112214286Y-57550057D01*
X112214286Y-57550057D02*
X112119048Y-57692914D01*
X112119048Y-57692914D02*
X112071429Y-57883390D01*
X112071429Y-57883390D02*
X112071429Y-58264342D01*
X112071429Y-58264342D02*
X112119048Y-58359580D01*
X112119048Y-58359580D02*
X112166667Y-58407200D01*
X112166667Y-58407200D02*
X112261905Y-58454819D01*
X112261905Y-58454819D02*
X112452381Y-58454819D01*
X112452381Y-58454819D02*
X112547619Y-58407200D01*
X112547619Y-58407200D02*
X112595238Y-58359580D01*
X112595238Y-58359580D02*
X112642857Y-58264342D01*
X112642857Y-58264342D02*
X112642857Y-58026247D01*
X112642857Y-58026247D02*
X112595238Y-57931009D01*
X112595238Y-57931009D02*
X112547619Y-57883390D01*
X112547619Y-57883390D02*
X112452381Y-57835771D01*
X112452381Y-57835771D02*
X112261905Y-57835771D01*
X112261905Y-57835771D02*
X112166667Y-57883390D01*
X112166667Y-57883390D02*
X112119048Y-57931009D01*
X112119048Y-57931009D02*
X112071429Y-58026247D01*
X112928572Y-57454819D02*
X113500000Y-57454819D01*
X113214286Y-58454819D02*
X113214286Y-57454819D01*
X114404762Y-58454819D02*
X114071429Y-57978628D01*
X113833334Y-58454819D02*
X113833334Y-57454819D01*
X113833334Y-57454819D02*
X114214286Y-57454819D01*
X114214286Y-57454819D02*
X114309524Y-57502438D01*
X114309524Y-57502438D02*
X114357143Y-57550057D01*
X114357143Y-57550057D02*
X114404762Y-57645295D01*
X114404762Y-57645295D02*
X114404762Y-57788152D01*
X114404762Y-57788152D02*
X114357143Y-57883390D01*
X114357143Y-57883390D02*
X114309524Y-57931009D01*
X114309524Y-57931009D02*
X114214286Y-57978628D01*
X114214286Y-57978628D02*
X113833334Y-57978628D01*
X114583333Y-60609580D02*
X114535714Y-60657200D01*
X114535714Y-60657200D02*
X114392857Y-60704819D01*
X114392857Y-60704819D02*
X114297619Y-60704819D01*
X114297619Y-60704819D02*
X114154762Y-60657200D01*
X114154762Y-60657200D02*
X114059524Y-60561961D01*
X114059524Y-60561961D02*
X114011905Y-60466723D01*
X114011905Y-60466723D02*
X113964286Y-60276247D01*
X113964286Y-60276247D02*
X113964286Y-60133390D01*
X113964286Y-60133390D02*
X114011905Y-59942914D01*
X114011905Y-59942914D02*
X114059524Y-59847676D01*
X114059524Y-59847676D02*
X114154762Y-59752438D01*
X114154762Y-59752438D02*
X114297619Y-59704819D01*
X114297619Y-59704819D02*
X114392857Y-59704819D01*
X114392857Y-59704819D02*
X114535714Y-59752438D01*
X114535714Y-59752438D02*
X114583333Y-59800057D01*
X114916667Y-59704819D02*
X115535714Y-59704819D01*
X115535714Y-59704819D02*
X115202381Y-60085771D01*
X115202381Y-60085771D02*
X115345238Y-60085771D01*
X115345238Y-60085771D02*
X115440476Y-60133390D01*
X115440476Y-60133390D02*
X115488095Y-60181009D01*
X115488095Y-60181009D02*
X115535714Y-60276247D01*
X115535714Y-60276247D02*
X115535714Y-60514342D01*
X115535714Y-60514342D02*
X115488095Y-60609580D01*
X115488095Y-60609580D02*
X115440476Y-60657200D01*
X115440476Y-60657200D02*
X115345238Y-60704819D01*
X115345238Y-60704819D02*
X115059524Y-60704819D01*
X115059524Y-60704819D02*
X114964286Y-60657200D01*
X114964286Y-60657200D02*
X114916667Y-60609580D01*
D10*
X95735714Y-63538704D02*
X95697618Y-63576800D01*
X95697618Y-63576800D02*
X95583333Y-63614895D01*
X95583333Y-63614895D02*
X95507142Y-63614895D01*
X95507142Y-63614895D02*
X95392856Y-63576800D01*
X95392856Y-63576800D02*
X95316666Y-63500609D01*
X95316666Y-63500609D02*
X95278571Y-63424419D01*
X95278571Y-63424419D02*
X95240475Y-63272038D01*
X95240475Y-63272038D02*
X95240475Y-63157752D01*
X95240475Y-63157752D02*
X95278571Y-63005371D01*
X95278571Y-63005371D02*
X95316666Y-62929180D01*
X95316666Y-62929180D02*
X95392856Y-62852990D01*
X95392856Y-62852990D02*
X95507142Y-62814895D01*
X95507142Y-62814895D02*
X95583333Y-62814895D01*
X95583333Y-62814895D02*
X95697618Y-62852990D01*
X95697618Y-62852990D02*
X95735714Y-62891085D01*
X96497618Y-63614895D02*
X96040475Y-63614895D01*
X96269047Y-63614895D02*
X96269047Y-62814895D01*
X96269047Y-62814895D02*
X96192856Y-62929180D01*
X96192856Y-62929180D02*
X96116666Y-63005371D01*
X96116666Y-63005371D02*
X96040475Y-63043466D01*
X96802380Y-62891085D02*
X96840476Y-62852990D01*
X96840476Y-62852990D02*
X96916666Y-62814895D01*
X96916666Y-62814895D02*
X97107142Y-62814895D01*
X97107142Y-62814895D02*
X97183333Y-62852990D01*
X97183333Y-62852990D02*
X97221428Y-62891085D01*
X97221428Y-62891085D02*
X97259523Y-62967276D01*
X97259523Y-62967276D02*
X97259523Y-63043466D01*
X97259523Y-63043466D02*
X97221428Y-63157752D01*
X97221428Y-63157752D02*
X96764285Y-63614895D01*
X96764285Y-63614895D02*
X97259523Y-63614895D01*
D11*
X115142857Y-54657200D02*
X115285714Y-54704819D01*
X115285714Y-54704819D02*
X115523809Y-54704819D01*
X115523809Y-54704819D02*
X115619047Y-54657200D01*
X115619047Y-54657200D02*
X115666666Y-54609580D01*
X115666666Y-54609580D02*
X115714285Y-54514342D01*
X115714285Y-54514342D02*
X115714285Y-54419104D01*
X115714285Y-54419104D02*
X115666666Y-54323866D01*
X115666666Y-54323866D02*
X115619047Y-54276247D01*
X115619047Y-54276247D02*
X115523809Y-54228628D01*
X115523809Y-54228628D02*
X115333333Y-54181009D01*
X115333333Y-54181009D02*
X115238095Y-54133390D01*
X115238095Y-54133390D02*
X115190476Y-54085771D01*
X115190476Y-54085771D02*
X115142857Y-53990533D01*
X115142857Y-53990533D02*
X115142857Y-53895295D01*
X115142857Y-53895295D02*
X115190476Y-53800057D01*
X115190476Y-53800057D02*
X115238095Y-53752438D01*
X115238095Y-53752438D02*
X115333333Y-53704819D01*
X115333333Y-53704819D02*
X115571428Y-53704819D01*
X115571428Y-53704819D02*
X115714285Y-53752438D01*
X116047619Y-53704819D02*
X116285714Y-54704819D01*
X116285714Y-54704819D02*
X116476190Y-53990533D01*
X116476190Y-53990533D02*
X116666666Y-54704819D01*
X116666666Y-54704819D02*
X116904762Y-53704819D01*
X117285714Y-54704819D02*
X117285714Y-53704819D01*
X117285714Y-53704819D02*
X117523809Y-53704819D01*
X117523809Y-53704819D02*
X117666666Y-53752438D01*
X117666666Y-53752438D02*
X117761904Y-53847676D01*
X117761904Y-53847676D02*
X117809523Y-53942914D01*
X117809523Y-53942914D02*
X117857142Y-54133390D01*
X117857142Y-54133390D02*
X117857142Y-54276247D01*
X117857142Y-54276247D02*
X117809523Y-54466723D01*
X117809523Y-54466723D02*
X117761904Y-54561961D01*
X117761904Y-54561961D02*
X117666666Y-54657200D01*
X117666666Y-54657200D02*
X117523809Y-54704819D01*
X117523809Y-54704819D02*
X117285714Y-54704819D01*
X108297619Y-85704819D02*
X108488095Y-85704819D01*
X108488095Y-85704819D02*
X108583333Y-85752438D01*
X108583333Y-85752438D02*
X108678571Y-85847676D01*
X108678571Y-85847676D02*
X108726190Y-86038152D01*
X108726190Y-86038152D02*
X108726190Y-86371485D01*
X108726190Y-86371485D02*
X108678571Y-86561961D01*
X108678571Y-86561961D02*
X108583333Y-86657200D01*
X108583333Y-86657200D02*
X108488095Y-86704819D01*
X108488095Y-86704819D02*
X108297619Y-86704819D01*
X108297619Y-86704819D02*
X108202381Y-86657200D01*
X108202381Y-86657200D02*
X108107143Y-86561961D01*
X108107143Y-86561961D02*
X108059524Y-86371485D01*
X108059524Y-86371485D02*
X108059524Y-86038152D01*
X108059524Y-86038152D02*
X108107143Y-85847676D01*
X108107143Y-85847676D02*
X108202381Y-85752438D01*
X108202381Y-85752438D02*
X108297619Y-85704819D01*
X109630952Y-86704819D02*
X109154762Y-86704819D01*
X109154762Y-86704819D02*
X109154762Y-85704819D01*
X109964286Y-86181009D02*
X110297619Y-86181009D01*
X110440476Y-86704819D02*
X109964286Y-86704819D01*
X109964286Y-86704819D02*
X109964286Y-85704819D01*
X109964286Y-85704819D02*
X110440476Y-85704819D01*
X110869048Y-86704819D02*
X110869048Y-85704819D01*
X110869048Y-85704819D02*
X111107143Y-85704819D01*
X111107143Y-85704819D02*
X111250000Y-85752438D01*
X111250000Y-85752438D02*
X111345238Y-85847676D01*
X111345238Y-85847676D02*
X111392857Y-85942914D01*
X111392857Y-85942914D02*
X111440476Y-86133390D01*
X111440476Y-86133390D02*
X111440476Y-86276247D01*
X111440476Y-86276247D02*
X111392857Y-86466723D01*
X111392857Y-86466723D02*
X111345238Y-86561961D01*
X111345238Y-86561961D02*
X111250000Y-86657200D01*
X111250000Y-86657200D02*
X111107143Y-86704819D01*
X111107143Y-86704819D02*
X110869048Y-86704819D01*
X88023809Y-64478628D02*
X88023809Y-64954819D01*
X87690476Y-63954819D02*
X88023809Y-64478628D01*
X88023809Y-64478628D02*
X88357142Y-63954819D01*
X89214285Y-64954819D02*
X88642857Y-64954819D01*
X88928571Y-64954819D02*
X88928571Y-63954819D01*
X88928571Y-63954819D02*
X88833333Y-64097676D01*
X88833333Y-64097676D02*
X88738095Y-64192914D01*
X88738095Y-64192914D02*
X88642857Y-64240533D01*
X122418095Y-55704819D02*
X122418095Y-56514342D01*
X122418095Y-56514342D02*
X122465714Y-56609580D01*
X122465714Y-56609580D02*
X122513333Y-56657200D01*
X122513333Y-56657200D02*
X122608571Y-56704819D01*
X122608571Y-56704819D02*
X122799047Y-56704819D01*
X122799047Y-56704819D02*
X122894285Y-56657200D01*
X122894285Y-56657200D02*
X122941904Y-56609580D01*
X122941904Y-56609580D02*
X122989523Y-56514342D01*
X122989523Y-56514342D02*
X122989523Y-55704819D01*
X123418095Y-56657200D02*
X123560952Y-56704819D01*
X123560952Y-56704819D02*
X123799047Y-56704819D01*
X123799047Y-56704819D02*
X123894285Y-56657200D01*
X123894285Y-56657200D02*
X123941904Y-56609580D01*
X123941904Y-56609580D02*
X123989523Y-56514342D01*
X123989523Y-56514342D02*
X123989523Y-56419104D01*
X123989523Y-56419104D02*
X123941904Y-56323866D01*
X123941904Y-56323866D02*
X123894285Y-56276247D01*
X123894285Y-56276247D02*
X123799047Y-56228628D01*
X123799047Y-56228628D02*
X123608571Y-56181009D01*
X123608571Y-56181009D02*
X123513333Y-56133390D01*
X123513333Y-56133390D02*
X123465714Y-56085771D01*
X123465714Y-56085771D02*
X123418095Y-55990533D01*
X123418095Y-55990533D02*
X123418095Y-55895295D01*
X123418095Y-55895295D02*
X123465714Y-55800057D01*
X123465714Y-55800057D02*
X123513333Y-55752438D01*
X123513333Y-55752438D02*
X123608571Y-55704819D01*
X123608571Y-55704819D02*
X123846666Y-55704819D01*
X123846666Y-55704819D02*
X123989523Y-55752438D01*
X124751428Y-56181009D02*
X124894285Y-56228628D01*
X124894285Y-56228628D02*
X124941904Y-56276247D01*
X124941904Y-56276247D02*
X124989523Y-56371485D01*
X124989523Y-56371485D02*
X124989523Y-56514342D01*
X124989523Y-56514342D02*
X124941904Y-56609580D01*
X124941904Y-56609580D02*
X124894285Y-56657200D01*
X124894285Y-56657200D02*
X124799047Y-56704819D01*
X124799047Y-56704819D02*
X124418095Y-56704819D01*
X124418095Y-56704819D02*
X124418095Y-55704819D01*
X124418095Y-55704819D02*
X124751428Y-55704819D01*
X124751428Y-55704819D02*
X124846666Y-55752438D01*
X124846666Y-55752438D02*
X124894285Y-55800057D01*
X124894285Y-55800057D02*
X124941904Y-55895295D01*
X124941904Y-55895295D02*
X124941904Y-55990533D01*
X124941904Y-55990533D02*
X124894285Y-56085771D01*
X124894285Y-56085771D02*
X124846666Y-56133390D01*
X124846666Y-56133390D02*
X124751428Y-56181009D01*
X124751428Y-56181009D02*
X124418095Y-56181009D01*
X93642857Y-57181009D02*
X93785714Y-57228628D01*
X93785714Y-57228628D02*
X93833333Y-57276247D01*
X93833333Y-57276247D02*
X93880952Y-57371485D01*
X93880952Y-57371485D02*
X93880952Y-57514342D01*
X93880952Y-57514342D02*
X93833333Y-57609580D01*
X93833333Y-57609580D02*
X93785714Y-57657200D01*
X93785714Y-57657200D02*
X93690476Y-57704819D01*
X93690476Y-57704819D02*
X93309524Y-57704819D01*
X93309524Y-57704819D02*
X93309524Y-56704819D01*
X93309524Y-56704819D02*
X93642857Y-56704819D01*
X93642857Y-56704819D02*
X93738095Y-56752438D01*
X93738095Y-56752438D02*
X93785714Y-56800057D01*
X93785714Y-56800057D02*
X93833333Y-56895295D01*
X93833333Y-56895295D02*
X93833333Y-56990533D01*
X93833333Y-56990533D02*
X93785714Y-57085771D01*
X93785714Y-57085771D02*
X93738095Y-57133390D01*
X93738095Y-57133390D02*
X93642857Y-57181009D01*
X93642857Y-57181009D02*
X93309524Y-57181009D01*
X94500000Y-56704819D02*
X94690476Y-56704819D01*
X94690476Y-56704819D02*
X94785714Y-56752438D01*
X94785714Y-56752438D02*
X94880952Y-56847676D01*
X94880952Y-56847676D02*
X94928571Y-57038152D01*
X94928571Y-57038152D02*
X94928571Y-57371485D01*
X94928571Y-57371485D02*
X94880952Y-57561961D01*
X94880952Y-57561961D02*
X94785714Y-57657200D01*
X94785714Y-57657200D02*
X94690476Y-57704819D01*
X94690476Y-57704819D02*
X94500000Y-57704819D01*
X94500000Y-57704819D02*
X94404762Y-57657200D01*
X94404762Y-57657200D02*
X94309524Y-57561961D01*
X94309524Y-57561961D02*
X94261905Y-57371485D01*
X94261905Y-57371485D02*
X94261905Y-57038152D01*
X94261905Y-57038152D02*
X94309524Y-56847676D01*
X94309524Y-56847676D02*
X94404762Y-56752438D01*
X94404762Y-56752438D02*
X94500000Y-56704819D01*
X95547619Y-56704819D02*
X95738095Y-56704819D01*
X95738095Y-56704819D02*
X95833333Y-56752438D01*
X95833333Y-56752438D02*
X95928571Y-56847676D01*
X95928571Y-56847676D02*
X95976190Y-57038152D01*
X95976190Y-57038152D02*
X95976190Y-57371485D01*
X95976190Y-57371485D02*
X95928571Y-57561961D01*
X95928571Y-57561961D02*
X95833333Y-57657200D01*
X95833333Y-57657200D02*
X95738095Y-57704819D01*
X95738095Y-57704819D02*
X95547619Y-57704819D01*
X95547619Y-57704819D02*
X95452381Y-57657200D01*
X95452381Y-57657200D02*
X95357143Y-57561961D01*
X95357143Y-57561961D02*
X95309524Y-57371485D01*
X95309524Y-57371485D02*
X95309524Y-57038152D01*
X95309524Y-57038152D02*
X95357143Y-56847676D01*
X95357143Y-56847676D02*
X95452381Y-56752438D01*
X95452381Y-56752438D02*
X95547619Y-56704819D01*
X96261905Y-56704819D02*
X96833333Y-56704819D01*
X96547619Y-57704819D02*
X96547619Y-56704819D01*
X121857142Y-84859580D02*
X121809523Y-84907200D01*
X121809523Y-84907200D02*
X121666666Y-84954819D01*
X121666666Y-84954819D02*
X121571428Y-84954819D01*
X121571428Y-84954819D02*
X121428571Y-84907200D01*
X121428571Y-84907200D02*
X121333333Y-84811961D01*
X121333333Y-84811961D02*
X121285714Y-84716723D01*
X121285714Y-84716723D02*
X121238095Y-84526247D01*
X121238095Y-84526247D02*
X121238095Y-84383390D01*
X121238095Y-84383390D02*
X121285714Y-84192914D01*
X121285714Y-84192914D02*
X121333333Y-84097676D01*
X121333333Y-84097676D02*
X121428571Y-84002438D01*
X121428571Y-84002438D02*
X121571428Y-83954819D01*
X121571428Y-83954819D02*
X121666666Y-83954819D01*
X121666666Y-83954819D02*
X121809523Y-84002438D01*
X121809523Y-84002438D02*
X121857142Y-84050057D01*
X122809523Y-84954819D02*
X122238095Y-84954819D01*
X122523809Y-84954819D02*
X122523809Y-83954819D01*
X122523809Y-83954819D02*
X122428571Y-84097676D01*
X122428571Y-84097676D02*
X122333333Y-84192914D01*
X122333333Y-84192914D02*
X122238095Y-84240533D01*
X123142857Y-83954819D02*
X123761904Y-83954819D01*
X123761904Y-83954819D02*
X123428571Y-84335771D01*
X123428571Y-84335771D02*
X123571428Y-84335771D01*
X123571428Y-84335771D02*
X123666666Y-84383390D01*
X123666666Y-84383390D02*
X123714285Y-84431009D01*
X123714285Y-84431009D02*
X123761904Y-84526247D01*
X123761904Y-84526247D02*
X123761904Y-84764342D01*
X123761904Y-84764342D02*
X123714285Y-84859580D01*
X123714285Y-84859580D02*
X123666666Y-84907200D01*
X123666666Y-84907200D02*
X123571428Y-84954819D01*
X123571428Y-84954819D02*
X123285714Y-84954819D01*
X123285714Y-84954819D02*
X123190476Y-84907200D01*
X123190476Y-84907200D02*
X123142857Y-84859580D01*
X103908333Y-52024819D02*
X103575000Y-51548628D01*
X103336905Y-52024819D02*
X103336905Y-51024819D01*
X103336905Y-51024819D02*
X103717857Y-51024819D01*
X103717857Y-51024819D02*
X103813095Y-51072438D01*
X103813095Y-51072438D02*
X103860714Y-51120057D01*
X103860714Y-51120057D02*
X103908333Y-51215295D01*
X103908333Y-51215295D02*
X103908333Y-51358152D01*
X103908333Y-51358152D02*
X103860714Y-51453390D01*
X103860714Y-51453390D02*
X103813095Y-51501009D01*
X103813095Y-51501009D02*
X103717857Y-51548628D01*
X103717857Y-51548628D02*
X103336905Y-51548628D01*
X104860714Y-52024819D02*
X104289286Y-52024819D01*
X104575000Y-52024819D02*
X104575000Y-51024819D01*
X104575000Y-51024819D02*
X104479762Y-51167676D01*
X104479762Y-51167676D02*
X104384524Y-51262914D01*
X104384524Y-51262914D02*
X104289286Y-51310533D01*
X103583333Y-55109580D02*
X103535714Y-55157200D01*
X103535714Y-55157200D02*
X103392857Y-55204819D01*
X103392857Y-55204819D02*
X103297619Y-55204819D01*
X103297619Y-55204819D02*
X103154762Y-55157200D01*
X103154762Y-55157200D02*
X103059524Y-55061961D01*
X103059524Y-55061961D02*
X103011905Y-54966723D01*
X103011905Y-54966723D02*
X102964286Y-54776247D01*
X102964286Y-54776247D02*
X102964286Y-54633390D01*
X102964286Y-54633390D02*
X103011905Y-54442914D01*
X103011905Y-54442914D02*
X103059524Y-54347676D01*
X103059524Y-54347676D02*
X103154762Y-54252438D01*
X103154762Y-54252438D02*
X103297619Y-54204819D01*
X103297619Y-54204819D02*
X103392857Y-54204819D01*
X103392857Y-54204819D02*
X103535714Y-54252438D01*
X103535714Y-54252438D02*
X103583333Y-54300057D01*
X104488095Y-54204819D02*
X104011905Y-54204819D01*
X104011905Y-54204819D02*
X103964286Y-54681009D01*
X103964286Y-54681009D02*
X104011905Y-54633390D01*
X104011905Y-54633390D02*
X104107143Y-54585771D01*
X104107143Y-54585771D02*
X104345238Y-54585771D01*
X104345238Y-54585771D02*
X104440476Y-54633390D01*
X104440476Y-54633390D02*
X104488095Y-54681009D01*
X104488095Y-54681009D02*
X104535714Y-54776247D01*
X104535714Y-54776247D02*
X104535714Y-55014342D01*
X104535714Y-55014342D02*
X104488095Y-55109580D01*
X104488095Y-55109580D02*
X104440476Y-55157200D01*
X104440476Y-55157200D02*
X104345238Y-55204819D01*
X104345238Y-55204819D02*
X104107143Y-55204819D01*
X104107143Y-55204819D02*
X104011905Y-55157200D01*
X104011905Y-55157200D02*
X103964286Y-55109580D01*
X126488095Y-75954819D02*
X126488095Y-76764342D01*
X126488095Y-76764342D02*
X126535714Y-76859580D01*
X126535714Y-76859580D02*
X126583333Y-76907200D01*
X126583333Y-76907200D02*
X126678571Y-76954819D01*
X126678571Y-76954819D02*
X126869047Y-76954819D01*
X126869047Y-76954819D02*
X126964285Y-76907200D01*
X126964285Y-76907200D02*
X127011904Y-76859580D01*
X127011904Y-76859580D02*
X127059523Y-76764342D01*
X127059523Y-76764342D02*
X127059523Y-75954819D01*
X127488095Y-76050057D02*
X127535714Y-76002438D01*
X127535714Y-76002438D02*
X127630952Y-75954819D01*
X127630952Y-75954819D02*
X127869047Y-75954819D01*
X127869047Y-75954819D02*
X127964285Y-76002438D01*
X127964285Y-76002438D02*
X128011904Y-76050057D01*
X128011904Y-76050057D02*
X128059523Y-76145295D01*
X128059523Y-76145295D02*
X128059523Y-76240533D01*
X128059523Y-76240533D02*
X128011904Y-76383390D01*
X128011904Y-76383390D02*
X127440476Y-76954819D01*
X127440476Y-76954819D02*
X128059523Y-76954819D01*
D12*
X95678333Y-70445197D02*
X95411667Y-70445197D01*
X95411667Y-70864245D02*
X95411667Y-70064245D01*
X95411667Y-70064245D02*
X95792619Y-70064245D01*
X96364047Y-70445197D02*
X96478333Y-70483292D01*
X96478333Y-70483292D02*
X96516428Y-70521388D01*
X96516428Y-70521388D02*
X96554524Y-70597578D01*
X96554524Y-70597578D02*
X96554524Y-70711864D01*
X96554524Y-70711864D02*
X96516428Y-70788054D01*
X96516428Y-70788054D02*
X96478333Y-70826150D01*
X96478333Y-70826150D02*
X96402143Y-70864245D01*
X96402143Y-70864245D02*
X96097381Y-70864245D01*
X96097381Y-70864245D02*
X96097381Y-70064245D01*
X96097381Y-70064245D02*
X96364047Y-70064245D01*
X96364047Y-70064245D02*
X96440238Y-70102340D01*
X96440238Y-70102340D02*
X96478333Y-70140435D01*
X96478333Y-70140435D02*
X96516428Y-70216626D01*
X96516428Y-70216626D02*
X96516428Y-70292816D01*
X96516428Y-70292816D02*
X96478333Y-70369007D01*
X96478333Y-70369007D02*
X96440238Y-70407102D01*
X96440238Y-70407102D02*
X96364047Y-70445197D01*
X96364047Y-70445197D02*
X96097381Y-70445197D01*
X97316428Y-70864245D02*
X96859285Y-70864245D01*
X97087857Y-70864245D02*
X97087857Y-70064245D01*
X97087857Y-70064245D02*
X97011666Y-70178530D01*
X97011666Y-70178530D02*
X96935476Y-70254721D01*
X96935476Y-70254721D02*
X96859285Y-70292816D01*
X99116667Y-64288054D02*
X99078571Y-64326150D01*
X99078571Y-64326150D02*
X98964286Y-64364245D01*
X98964286Y-64364245D02*
X98888095Y-64364245D01*
X98888095Y-64364245D02*
X98773809Y-64326150D01*
X98773809Y-64326150D02*
X98697619Y-64249959D01*
X98697619Y-64249959D02*
X98659524Y-64173769D01*
X98659524Y-64173769D02*
X98621428Y-64021388D01*
X98621428Y-64021388D02*
X98621428Y-63907102D01*
X98621428Y-63907102D02*
X98659524Y-63754721D01*
X98659524Y-63754721D02*
X98697619Y-63678530D01*
X98697619Y-63678530D02*
X98773809Y-63602340D01*
X98773809Y-63602340D02*
X98888095Y-63564245D01*
X98888095Y-63564245D02*
X98964286Y-63564245D01*
X98964286Y-63564245D02*
X99078571Y-63602340D01*
X99078571Y-63602340D02*
X99116667Y-63640435D01*
X99497619Y-64364245D02*
X99650000Y-64364245D01*
X99650000Y-64364245D02*
X99726190Y-64326150D01*
X99726190Y-64326150D02*
X99764286Y-64288054D01*
X99764286Y-64288054D02*
X99840476Y-64173769D01*
X99840476Y-64173769D02*
X99878571Y-64021388D01*
X99878571Y-64021388D02*
X99878571Y-63716626D01*
X99878571Y-63716626D02*
X99840476Y-63640435D01*
X99840476Y-63640435D02*
X99802381Y-63602340D01*
X99802381Y-63602340D02*
X99726190Y-63564245D01*
X99726190Y-63564245D02*
X99573809Y-63564245D01*
X99573809Y-63564245D02*
X99497619Y-63602340D01*
X99497619Y-63602340D02*
X99459524Y-63640435D01*
X99459524Y-63640435D02*
X99421428Y-63716626D01*
X99421428Y-63716626D02*
X99421428Y-63907102D01*
X99421428Y-63907102D02*
X99459524Y-63983292D01*
X99459524Y-63983292D02*
X99497619Y-64021388D01*
X99497619Y-64021388D02*
X99573809Y-64059483D01*
X99573809Y-64059483D02*
X99726190Y-64059483D01*
X99726190Y-64059483D02*
X99802381Y-64021388D01*
X99802381Y-64021388D02*
X99840476Y-63983292D01*
X99840476Y-63983292D02*
X99878571Y-63907102D01*
D11*
X93880952Y-86704819D02*
X93880952Y-85704819D01*
X93880952Y-85704819D02*
X94261904Y-85704819D01*
X94261904Y-85704819D02*
X94357142Y-85752438D01*
X94357142Y-85752438D02*
X94404761Y-85800057D01*
X94404761Y-85800057D02*
X94452380Y-85895295D01*
X94452380Y-85895295D02*
X94452380Y-86038152D01*
X94452380Y-86038152D02*
X94404761Y-86133390D01*
X94404761Y-86133390D02*
X94357142Y-86181009D01*
X94357142Y-86181009D02*
X94261904Y-86228628D01*
X94261904Y-86228628D02*
X93880952Y-86228628D01*
X94880952Y-85704819D02*
X94880952Y-86514342D01*
X94880952Y-86514342D02*
X94928571Y-86609580D01*
X94928571Y-86609580D02*
X94976190Y-86657200D01*
X94976190Y-86657200D02*
X95071428Y-86704819D01*
X95071428Y-86704819D02*
X95261904Y-86704819D01*
X95261904Y-86704819D02*
X95357142Y-86657200D01*
X95357142Y-86657200D02*
X95404761Y-86609580D01*
X95404761Y-86609580D02*
X95452380Y-86514342D01*
X95452380Y-86514342D02*
X95452380Y-85704819D01*
X96404761Y-86704819D02*
X95928571Y-86704819D01*
X95928571Y-86704819D02*
X95928571Y-85704819D01*
X96690476Y-86657200D02*
X96833333Y-86704819D01*
X96833333Y-86704819D02*
X97071428Y-86704819D01*
X97071428Y-86704819D02*
X97166666Y-86657200D01*
X97166666Y-86657200D02*
X97214285Y-86609580D01*
X97214285Y-86609580D02*
X97261904Y-86514342D01*
X97261904Y-86514342D02*
X97261904Y-86419104D01*
X97261904Y-86419104D02*
X97214285Y-86323866D01*
X97214285Y-86323866D02*
X97166666Y-86276247D01*
X97166666Y-86276247D02*
X97071428Y-86228628D01*
X97071428Y-86228628D02*
X96880952Y-86181009D01*
X96880952Y-86181009D02*
X96785714Y-86133390D01*
X96785714Y-86133390D02*
X96738095Y-86085771D01*
X96738095Y-86085771D02*
X96690476Y-85990533D01*
X96690476Y-85990533D02*
X96690476Y-85895295D01*
X96690476Y-85895295D02*
X96738095Y-85800057D01*
X96738095Y-85800057D02*
X96785714Y-85752438D01*
X96785714Y-85752438D02*
X96880952Y-85704819D01*
X96880952Y-85704819D02*
X97119047Y-85704819D01*
X97119047Y-85704819D02*
X97261904Y-85752438D01*
X97690476Y-86181009D02*
X98023809Y-86181009D01*
X98166666Y-86704819D02*
X97690476Y-86704819D01*
X97690476Y-86704819D02*
X97690476Y-85704819D01*
X97690476Y-85704819D02*
X98166666Y-85704819D01*
X118083333Y-70454819D02*
X117750000Y-69978628D01*
X117511905Y-70454819D02*
X117511905Y-69454819D01*
X117511905Y-69454819D02*
X117892857Y-69454819D01*
X117892857Y-69454819D02*
X117988095Y-69502438D01*
X117988095Y-69502438D02*
X118035714Y-69550057D01*
X118035714Y-69550057D02*
X118083333Y-69645295D01*
X118083333Y-69645295D02*
X118083333Y-69788152D01*
X118083333Y-69788152D02*
X118035714Y-69883390D01*
X118035714Y-69883390D02*
X117988095Y-69931009D01*
X117988095Y-69931009D02*
X117892857Y-69978628D01*
X117892857Y-69978628D02*
X117511905Y-69978628D01*
X118416667Y-69454819D02*
X119035714Y-69454819D01*
X119035714Y-69454819D02*
X118702381Y-69835771D01*
X118702381Y-69835771D02*
X118845238Y-69835771D01*
X118845238Y-69835771D02*
X118940476Y-69883390D01*
X118940476Y-69883390D02*
X118988095Y-69931009D01*
X118988095Y-69931009D02*
X119035714Y-70026247D01*
X119035714Y-70026247D02*
X119035714Y-70264342D01*
X119035714Y-70264342D02*
X118988095Y-70359580D01*
X118988095Y-70359580D02*
X118940476Y-70407200D01*
X118940476Y-70407200D02*
X118845238Y-70454819D01*
X118845238Y-70454819D02*
X118559524Y-70454819D01*
X118559524Y-70454819D02*
X118464286Y-70407200D01*
X118464286Y-70407200D02*
X118416667Y-70359580D01*
D12*
X97366667Y-65538054D02*
X97328571Y-65576150D01*
X97328571Y-65576150D02*
X97214286Y-65614245D01*
X97214286Y-65614245D02*
X97138095Y-65614245D01*
X97138095Y-65614245D02*
X97023809Y-65576150D01*
X97023809Y-65576150D02*
X96947619Y-65499959D01*
X96947619Y-65499959D02*
X96909524Y-65423769D01*
X96909524Y-65423769D02*
X96871428Y-65271388D01*
X96871428Y-65271388D02*
X96871428Y-65157102D01*
X96871428Y-65157102D02*
X96909524Y-65004721D01*
X96909524Y-65004721D02*
X96947619Y-64928530D01*
X96947619Y-64928530D02*
X97023809Y-64852340D01*
X97023809Y-64852340D02*
X97138095Y-64814245D01*
X97138095Y-64814245D02*
X97214286Y-64814245D01*
X97214286Y-64814245D02*
X97328571Y-64852340D01*
X97328571Y-64852340D02*
X97366667Y-64890435D01*
X97823809Y-65157102D02*
X97747619Y-65119007D01*
X97747619Y-65119007D02*
X97709524Y-65080911D01*
X97709524Y-65080911D02*
X97671428Y-65004721D01*
X97671428Y-65004721D02*
X97671428Y-64966626D01*
X97671428Y-64966626D02*
X97709524Y-64890435D01*
X97709524Y-64890435D02*
X97747619Y-64852340D01*
X97747619Y-64852340D02*
X97823809Y-64814245D01*
X97823809Y-64814245D02*
X97976190Y-64814245D01*
X97976190Y-64814245D02*
X98052381Y-64852340D01*
X98052381Y-64852340D02*
X98090476Y-64890435D01*
X98090476Y-64890435D02*
X98128571Y-64966626D01*
X98128571Y-64966626D02*
X98128571Y-65004721D01*
X98128571Y-65004721D02*
X98090476Y-65080911D01*
X98090476Y-65080911D02*
X98052381Y-65119007D01*
X98052381Y-65119007D02*
X97976190Y-65157102D01*
X97976190Y-65157102D02*
X97823809Y-65157102D01*
X97823809Y-65157102D02*
X97747619Y-65195197D01*
X97747619Y-65195197D02*
X97709524Y-65233292D01*
X97709524Y-65233292D02*
X97671428Y-65309483D01*
X97671428Y-65309483D02*
X97671428Y-65461864D01*
X97671428Y-65461864D02*
X97709524Y-65538054D01*
X97709524Y-65538054D02*
X97747619Y-65576150D01*
X97747619Y-65576150D02*
X97823809Y-65614245D01*
X97823809Y-65614245D02*
X97976190Y-65614245D01*
X97976190Y-65614245D02*
X98052381Y-65576150D01*
X98052381Y-65576150D02*
X98090476Y-65538054D01*
X98090476Y-65538054D02*
X98128571Y-65461864D01*
X98128571Y-65461864D02*
X98128571Y-65309483D01*
X98128571Y-65309483D02*
X98090476Y-65233292D01*
X98090476Y-65233292D02*
X98052381Y-65195197D01*
X98052381Y-65195197D02*
X97976190Y-65157102D01*
D11*
X101583333Y-59359580D02*
X101535714Y-59407200D01*
X101535714Y-59407200D02*
X101392857Y-59454819D01*
X101392857Y-59454819D02*
X101297619Y-59454819D01*
X101297619Y-59454819D02*
X101154762Y-59407200D01*
X101154762Y-59407200D02*
X101059524Y-59311961D01*
X101059524Y-59311961D02*
X101011905Y-59216723D01*
X101011905Y-59216723D02*
X100964286Y-59026247D01*
X100964286Y-59026247D02*
X100964286Y-58883390D01*
X100964286Y-58883390D02*
X101011905Y-58692914D01*
X101011905Y-58692914D02*
X101059524Y-58597676D01*
X101059524Y-58597676D02*
X101154762Y-58502438D01*
X101154762Y-58502438D02*
X101297619Y-58454819D01*
X101297619Y-58454819D02*
X101392857Y-58454819D01*
X101392857Y-58454819D02*
X101535714Y-58502438D01*
X101535714Y-58502438D02*
X101583333Y-58550057D01*
X102440476Y-58788152D02*
X102440476Y-59454819D01*
X102202381Y-58407200D02*
X101964286Y-59121485D01*
X101964286Y-59121485D02*
X102583333Y-59121485D01*
D10*
X99386667Y-61038704D02*
X99348571Y-61076800D01*
X99348571Y-61076800D02*
X99234286Y-61114895D01*
X99234286Y-61114895D02*
X99158095Y-61114895D01*
X99158095Y-61114895D02*
X99043809Y-61076800D01*
X99043809Y-61076800D02*
X98967619Y-61000609D01*
X98967619Y-61000609D02*
X98929524Y-60924419D01*
X98929524Y-60924419D02*
X98891428Y-60772038D01*
X98891428Y-60772038D02*
X98891428Y-60657752D01*
X98891428Y-60657752D02*
X98929524Y-60505371D01*
X98929524Y-60505371D02*
X98967619Y-60429180D01*
X98967619Y-60429180D02*
X99043809Y-60352990D01*
X99043809Y-60352990D02*
X99158095Y-60314895D01*
X99158095Y-60314895D02*
X99234286Y-60314895D01*
X99234286Y-60314895D02*
X99348571Y-60352990D01*
X99348571Y-60352990D02*
X99386667Y-60391085D01*
X100148571Y-61114895D02*
X99691428Y-61114895D01*
X99920000Y-61114895D02*
X99920000Y-60314895D01*
X99920000Y-60314895D02*
X99843809Y-60429180D01*
X99843809Y-60429180D02*
X99767619Y-60505371D01*
X99767619Y-60505371D02*
X99691428Y-60543466D01*
D11*
X104158333Y-74609580D02*
X104110714Y-74657200D01*
X104110714Y-74657200D02*
X103967857Y-74704819D01*
X103967857Y-74704819D02*
X103872619Y-74704819D01*
X103872619Y-74704819D02*
X103729762Y-74657200D01*
X103729762Y-74657200D02*
X103634524Y-74561961D01*
X103634524Y-74561961D02*
X103586905Y-74466723D01*
X103586905Y-74466723D02*
X103539286Y-74276247D01*
X103539286Y-74276247D02*
X103539286Y-74133390D01*
X103539286Y-74133390D02*
X103586905Y-73942914D01*
X103586905Y-73942914D02*
X103634524Y-73847676D01*
X103634524Y-73847676D02*
X103729762Y-73752438D01*
X103729762Y-73752438D02*
X103872619Y-73704819D01*
X103872619Y-73704819D02*
X103967857Y-73704819D01*
X103967857Y-73704819D02*
X104110714Y-73752438D01*
X104110714Y-73752438D02*
X104158333Y-73800057D01*
X104539286Y-73800057D02*
X104586905Y-73752438D01*
X104586905Y-73752438D02*
X104682143Y-73704819D01*
X104682143Y-73704819D02*
X104920238Y-73704819D01*
X104920238Y-73704819D02*
X105015476Y-73752438D01*
X105015476Y-73752438D02*
X105063095Y-73800057D01*
X105063095Y-73800057D02*
X105110714Y-73895295D01*
X105110714Y-73895295D02*
X105110714Y-73990533D01*
X105110714Y-73990533D02*
X105063095Y-74133390D01*
X105063095Y-74133390D02*
X104491667Y-74704819D01*
X104491667Y-74704819D02*
X105110714Y-74704819D01*
X110147142Y-74609580D02*
X110099523Y-74657200D01*
X110099523Y-74657200D02*
X109956666Y-74704819D01*
X109956666Y-74704819D02*
X109861428Y-74704819D01*
X109861428Y-74704819D02*
X109718571Y-74657200D01*
X109718571Y-74657200D02*
X109623333Y-74561961D01*
X109623333Y-74561961D02*
X109575714Y-74466723D01*
X109575714Y-74466723D02*
X109528095Y-74276247D01*
X109528095Y-74276247D02*
X109528095Y-74133390D01*
X109528095Y-74133390D02*
X109575714Y-73942914D01*
X109575714Y-73942914D02*
X109623333Y-73847676D01*
X109623333Y-73847676D02*
X109718571Y-73752438D01*
X109718571Y-73752438D02*
X109861428Y-73704819D01*
X109861428Y-73704819D02*
X109956666Y-73704819D01*
X109956666Y-73704819D02*
X110099523Y-73752438D01*
X110099523Y-73752438D02*
X110147142Y-73800057D01*
X111099523Y-74704819D02*
X110528095Y-74704819D01*
X110813809Y-74704819D02*
X110813809Y-73704819D01*
X110813809Y-73704819D02*
X110718571Y-73847676D01*
X110718571Y-73847676D02*
X110623333Y-73942914D01*
X110623333Y-73942914D02*
X110528095Y-73990533D01*
X111718571Y-73704819D02*
X111813809Y-73704819D01*
X111813809Y-73704819D02*
X111909047Y-73752438D01*
X111909047Y-73752438D02*
X111956666Y-73800057D01*
X111956666Y-73800057D02*
X112004285Y-73895295D01*
X112004285Y-73895295D02*
X112051904Y-74085771D01*
X112051904Y-74085771D02*
X112051904Y-74323866D01*
X112051904Y-74323866D02*
X112004285Y-74514342D01*
X112004285Y-74514342D02*
X111956666Y-74609580D01*
X111956666Y-74609580D02*
X111909047Y-74657200D01*
X111909047Y-74657200D02*
X111813809Y-74704819D01*
X111813809Y-74704819D02*
X111718571Y-74704819D01*
X111718571Y-74704819D02*
X111623333Y-74657200D01*
X111623333Y-74657200D02*
X111575714Y-74609580D01*
X111575714Y-74609580D02*
X111528095Y-74514342D01*
X111528095Y-74514342D02*
X111480476Y-74323866D01*
X111480476Y-74323866D02*
X111480476Y-74085771D01*
X111480476Y-74085771D02*
X111528095Y-73895295D01*
X111528095Y-73895295D02*
X111575714Y-73800057D01*
X111575714Y-73800057D02*
X111623333Y-73752438D01*
X111623333Y-73752438D02*
X111718571Y-73704819D01*
D10*
X99116667Y-68788704D02*
X99078571Y-68826800D01*
X99078571Y-68826800D02*
X98964286Y-68864895D01*
X98964286Y-68864895D02*
X98888095Y-68864895D01*
X98888095Y-68864895D02*
X98773809Y-68826800D01*
X98773809Y-68826800D02*
X98697619Y-68750609D01*
X98697619Y-68750609D02*
X98659524Y-68674419D01*
X98659524Y-68674419D02*
X98621428Y-68522038D01*
X98621428Y-68522038D02*
X98621428Y-68407752D01*
X98621428Y-68407752D02*
X98659524Y-68255371D01*
X98659524Y-68255371D02*
X98697619Y-68179180D01*
X98697619Y-68179180D02*
X98773809Y-68102990D01*
X98773809Y-68102990D02*
X98888095Y-68064895D01*
X98888095Y-68064895D02*
X98964286Y-68064895D01*
X98964286Y-68064895D02*
X99078571Y-68102990D01*
X99078571Y-68102990D02*
X99116667Y-68141085D01*
X99802381Y-68064895D02*
X99650000Y-68064895D01*
X99650000Y-68064895D02*
X99573809Y-68102990D01*
X99573809Y-68102990D02*
X99535714Y-68141085D01*
X99535714Y-68141085D02*
X99459524Y-68255371D01*
X99459524Y-68255371D02*
X99421428Y-68407752D01*
X99421428Y-68407752D02*
X99421428Y-68712514D01*
X99421428Y-68712514D02*
X99459524Y-68788704D01*
X99459524Y-68788704D02*
X99497619Y-68826800D01*
X99497619Y-68826800D02*
X99573809Y-68864895D01*
X99573809Y-68864895D02*
X99726190Y-68864895D01*
X99726190Y-68864895D02*
X99802381Y-68826800D01*
X99802381Y-68826800D02*
X99840476Y-68788704D01*
X99840476Y-68788704D02*
X99878571Y-68712514D01*
X99878571Y-68712514D02*
X99878571Y-68522038D01*
X99878571Y-68522038D02*
X99840476Y-68445847D01*
X99840476Y-68445847D02*
X99802381Y-68407752D01*
X99802381Y-68407752D02*
X99726190Y-68369657D01*
X99726190Y-68369657D02*
X99573809Y-68369657D01*
X99573809Y-68369657D02*
X99497619Y-68407752D01*
X99497619Y-68407752D02*
X99459524Y-68445847D01*
X99459524Y-68445847D02*
X99421428Y-68522038D01*
D12*
X97711667Y-69808054D02*
X97673571Y-69846150D01*
X97673571Y-69846150D02*
X97559286Y-69884245D01*
X97559286Y-69884245D02*
X97483095Y-69884245D01*
X97483095Y-69884245D02*
X97368809Y-69846150D01*
X97368809Y-69846150D02*
X97292619Y-69769959D01*
X97292619Y-69769959D02*
X97254524Y-69693769D01*
X97254524Y-69693769D02*
X97216428Y-69541388D01*
X97216428Y-69541388D02*
X97216428Y-69427102D01*
X97216428Y-69427102D02*
X97254524Y-69274721D01*
X97254524Y-69274721D02*
X97292619Y-69198530D01*
X97292619Y-69198530D02*
X97368809Y-69122340D01*
X97368809Y-69122340D02*
X97483095Y-69084245D01*
X97483095Y-69084245D02*
X97559286Y-69084245D01*
X97559286Y-69084245D02*
X97673571Y-69122340D01*
X97673571Y-69122340D02*
X97711667Y-69160435D01*
X97978333Y-69084245D02*
X98511667Y-69084245D01*
X98511667Y-69084245D02*
X98168809Y-69884245D01*
D11*
X116833333Y-60454819D02*
X116500000Y-59978628D01*
X116261905Y-60454819D02*
X116261905Y-59454819D01*
X116261905Y-59454819D02*
X116642857Y-59454819D01*
X116642857Y-59454819D02*
X116738095Y-59502438D01*
X116738095Y-59502438D02*
X116785714Y-59550057D01*
X116785714Y-59550057D02*
X116833333Y-59645295D01*
X116833333Y-59645295D02*
X116833333Y-59788152D01*
X116833333Y-59788152D02*
X116785714Y-59883390D01*
X116785714Y-59883390D02*
X116738095Y-59931009D01*
X116738095Y-59931009D02*
X116642857Y-59978628D01*
X116642857Y-59978628D02*
X116261905Y-59978628D01*
X117214286Y-59550057D02*
X117261905Y-59502438D01*
X117261905Y-59502438D02*
X117357143Y-59454819D01*
X117357143Y-59454819D02*
X117595238Y-59454819D01*
X117595238Y-59454819D02*
X117690476Y-59502438D01*
X117690476Y-59502438D02*
X117738095Y-59550057D01*
X117738095Y-59550057D02*
X117785714Y-59645295D01*
X117785714Y-59645295D02*
X117785714Y-59740533D01*
X117785714Y-59740533D02*
X117738095Y-59883390D01*
X117738095Y-59883390D02*
X117166667Y-60454819D01*
X117166667Y-60454819D02*
X117785714Y-60454819D01*
X114607142Y-79609580D02*
X114559523Y-79657200D01*
X114559523Y-79657200D02*
X114416666Y-79704819D01*
X114416666Y-79704819D02*
X114321428Y-79704819D01*
X114321428Y-79704819D02*
X114178571Y-79657200D01*
X114178571Y-79657200D02*
X114083333Y-79561961D01*
X114083333Y-79561961D02*
X114035714Y-79466723D01*
X114035714Y-79466723D02*
X113988095Y-79276247D01*
X113988095Y-79276247D02*
X113988095Y-79133390D01*
X113988095Y-79133390D02*
X114035714Y-78942914D01*
X114035714Y-78942914D02*
X114083333Y-78847676D01*
X114083333Y-78847676D02*
X114178571Y-78752438D01*
X114178571Y-78752438D02*
X114321428Y-78704819D01*
X114321428Y-78704819D02*
X114416666Y-78704819D01*
X114416666Y-78704819D02*
X114559523Y-78752438D01*
X114559523Y-78752438D02*
X114607142Y-78800057D01*
X115559523Y-79704819D02*
X114988095Y-79704819D01*
X115273809Y-79704819D02*
X115273809Y-78704819D01*
X115273809Y-78704819D02*
X115178571Y-78847676D01*
X115178571Y-78847676D02*
X115083333Y-78942914D01*
X115083333Y-78942914D02*
X114988095Y-78990533D01*
X116416666Y-79038152D02*
X116416666Y-79704819D01*
X116178571Y-78657200D02*
X115940476Y-79371485D01*
X115940476Y-79371485D02*
X116559523Y-79371485D01*
X120611905Y-70524819D02*
X120611905Y-69524819D01*
X120611905Y-69524819D02*
X120850000Y-69524819D01*
X120850000Y-69524819D02*
X120992857Y-69572438D01*
X120992857Y-69572438D02*
X121088095Y-69667676D01*
X121088095Y-69667676D02*
X121135714Y-69762914D01*
X121135714Y-69762914D02*
X121183333Y-69953390D01*
X121183333Y-69953390D02*
X121183333Y-70096247D01*
X121183333Y-70096247D02*
X121135714Y-70286723D01*
X121135714Y-70286723D02*
X121088095Y-70381961D01*
X121088095Y-70381961D02*
X120992857Y-70477200D01*
X120992857Y-70477200D02*
X120850000Y-70524819D01*
X120850000Y-70524819D02*
X120611905Y-70524819D01*
X122135714Y-70524819D02*
X121564286Y-70524819D01*
X121850000Y-70524819D02*
X121850000Y-69524819D01*
X121850000Y-69524819D02*
X121754762Y-69667676D01*
X121754762Y-69667676D02*
X121659524Y-69762914D01*
X121659524Y-69762914D02*
X121564286Y-69810533D01*
D10*
X95735714Y-59788704D02*
X95697618Y-59826800D01*
X95697618Y-59826800D02*
X95583333Y-59864895D01*
X95583333Y-59864895D02*
X95507142Y-59864895D01*
X95507142Y-59864895D02*
X95392856Y-59826800D01*
X95392856Y-59826800D02*
X95316666Y-59750609D01*
X95316666Y-59750609D02*
X95278571Y-59674419D01*
X95278571Y-59674419D02*
X95240475Y-59522038D01*
X95240475Y-59522038D02*
X95240475Y-59407752D01*
X95240475Y-59407752D02*
X95278571Y-59255371D01*
X95278571Y-59255371D02*
X95316666Y-59179180D01*
X95316666Y-59179180D02*
X95392856Y-59102990D01*
X95392856Y-59102990D02*
X95507142Y-59064895D01*
X95507142Y-59064895D02*
X95583333Y-59064895D01*
X95583333Y-59064895D02*
X95697618Y-59102990D01*
X95697618Y-59102990D02*
X95735714Y-59141085D01*
X96497618Y-59864895D02*
X96040475Y-59864895D01*
X96269047Y-59864895D02*
X96269047Y-59064895D01*
X96269047Y-59064895D02*
X96192856Y-59179180D01*
X96192856Y-59179180D02*
X96116666Y-59255371D01*
X96116666Y-59255371D02*
X96040475Y-59293466D01*
X97259523Y-59864895D02*
X96802380Y-59864895D01*
X97030952Y-59864895D02*
X97030952Y-59064895D01*
X97030952Y-59064895D02*
X96954761Y-59179180D01*
X96954761Y-59179180D02*
X96878571Y-59255371D01*
X96878571Y-59255371D02*
X96802380Y-59293466D01*
D13*
%TO.C,F105RCT6TR*%
X101600000Y-61340000D02*
X101260000Y-60870000D01*
X101940000Y-60870000D01*
X101600000Y-61340000D01*
G36*
X101600000Y-61340000D02*
G01*
X101260000Y-60870000D01*
X101940000Y-60870000D01*
X101600000Y-61340000D01*
G37*
X112435000Y-70610000D02*
X112435000Y-69660000D01*
X112435000Y-60390000D02*
X112435000Y-61340000D01*
X111485000Y-70610000D02*
X112435000Y-70610000D01*
X111485000Y-60390000D02*
X112435000Y-60390000D01*
X103165000Y-70610000D02*
X102215000Y-70610000D01*
X103165000Y-60390000D02*
X102215000Y-60390000D01*
X102215000Y-70610000D02*
X102215000Y-69660000D01*
X102215000Y-60390000D02*
X102215000Y-61340000D01*
%TO.C,C3*%
X114715000Y-61912164D02*
X114715000Y-62127836D01*
X115435000Y-61912164D02*
X115435000Y-62127836D01*
%TO.C,C12*%
X95640000Y-64642164D02*
X95640000Y-64857836D01*
X96360000Y-64642164D02*
X96360000Y-64857836D01*
%TO.C,SWD*%
X114430000Y-52890000D02*
X114430000Y-54000000D01*
X113670000Y-52890000D02*
X114430000Y-52890000D01*
X112910000Y-55110000D02*
X109165000Y-55110000D01*
X112910000Y-54563471D02*
X112910000Y-55110000D01*
X112910000Y-52890000D02*
X112910000Y-53436529D01*
X112910000Y-52890000D02*
X109165000Y-52890000D01*
X109165000Y-54307530D02*
X109165000Y-55110000D01*
X109165000Y-52890000D02*
X109165000Y-53692470D01*
%TO.C,OLED*%
X114380000Y-82890000D02*
X114380000Y-84000000D01*
X113620000Y-82890000D02*
X114380000Y-82890000D01*
X112860000Y-85110000D02*
X105305000Y-85110000D01*
X112860000Y-84563471D02*
X112860000Y-85110000D01*
X112860000Y-82890000D02*
X112860000Y-83436529D01*
X112860000Y-82890000D02*
X105305000Y-82890000D01*
X105305000Y-84307530D02*
X105305000Y-85110000D01*
X105305000Y-82890000D02*
X105305000Y-83692470D01*
%TO.C,Y1*%
X89800000Y-60790000D02*
X89800000Y-67190000D01*
X94850000Y-60790000D02*
X94850000Y-67190000D01*
X89800000Y-60790000D02*
G75*
G02*
X94850000Y-60790000I2525000J0D01*
G01*
X94850000Y-67190000D02*
G75*
G02*
X89800000Y-67190000I-2525000J0D01*
G01*
%TO.C,USB*%
X129335000Y-67110000D02*
X127385000Y-67110000D01*
X129335000Y-59290000D02*
X129335000Y-67110000D01*
X129335000Y-59290000D02*
X127385000Y-59290000D01*
X125165000Y-67110000D02*
X121935000Y-67110000D01*
X125165000Y-59290000D02*
X121935000Y-59290000D01*
X120015000Y-66390000D02*
X120015000Y-65310000D01*
X120015000Y-65310000D02*
X119585000Y-65310000D01*
X120015000Y-61090000D02*
X120015000Y-60010000D01*
%TO.C,BOOT*%
X99410000Y-56510000D02*
X99410000Y-56200000D01*
X99410000Y-56510000D02*
X90590000Y-56510000D01*
X99410000Y-51990000D02*
X99410000Y-52300000D01*
X93500000Y-51290000D02*
X92500000Y-51290000D01*
X93000000Y-51790000D02*
X93500000Y-51290000D01*
X92500000Y-51290000D02*
X93000000Y-51790000D01*
X90590000Y-56510000D02*
X90590000Y-56200000D01*
X90590000Y-52300000D02*
X90590000Y-51990000D01*
X90590000Y-51990000D02*
X99410000Y-51990000D01*
%TO.C,C13*%
X122811252Y-81915000D02*
X122288748Y-81915000D01*
X122811252Y-83385000D02*
X122288748Y-83385000D01*
%TO.C,R1*%
X103837742Y-52477500D02*
X104312258Y-52477500D01*
X103837742Y-53522500D02*
X104312258Y-53522500D01*
%TO.C,C5*%
X103634420Y-55740000D02*
X103915580Y-55740000D01*
X103634420Y-56760000D02*
X103915580Y-56760000D01*
%TO.C,U2*%
X118990000Y-74990000D02*
X120250000Y-74990000D01*
X118990000Y-78750000D02*
X118990000Y-74990000D01*
X125810000Y-74990000D02*
X124550000Y-74990000D01*
X125810000Y-78750000D02*
X125810000Y-74990000D01*
X119090000Y-80030000D02*
X118760000Y-80270000D01*
X118760000Y-79790000D01*
X119090000Y-80030000D01*
G36*
X119090000Y-80030000D02*
G01*
X118760000Y-80270000D01*
X118760000Y-79790000D01*
X119090000Y-80030000D01*
G37*
%TO.C,FB1*%
X95835000Y-68700279D02*
X95835000Y-68374721D01*
X96855000Y-68700279D02*
X96855000Y-68374721D01*
%TO.C,C9*%
X99337836Y-64640000D02*
X99122164Y-64640000D01*
X99337836Y-65360000D02*
X99122164Y-65360000D01*
%TO.C,PULSE*%
X98695000Y-85110000D02*
X98695000Y-84307530D01*
X98695000Y-83692470D02*
X98695000Y-82890000D01*
X94950000Y-85110000D02*
X98695000Y-85110000D01*
X94950000Y-85110000D02*
X94950000Y-84563471D01*
X94950000Y-83436529D02*
X94950000Y-82890000D01*
X94950000Y-82890000D02*
X98695000Y-82890000D01*
X94190000Y-85110000D02*
X93430000Y-85110000D01*
X93430000Y-85110000D02*
X93430000Y-84000000D01*
%TO.C,R3*%
X117937742Y-70977500D02*
X118412258Y-70977500D01*
X117937742Y-72022500D02*
X118412258Y-72022500D01*
%TO.C,C8*%
X97467164Y-65890000D02*
X97682836Y-65890000D01*
X97467164Y-66610000D02*
X97682836Y-66610000D01*
%TO.C,C4*%
X103622164Y-57640000D02*
X103837836Y-57640000D01*
X103622164Y-58360000D02*
X103837836Y-58360000D01*
%TO.C,C1*%
X99607836Y-61390000D02*
X99392164Y-61390000D01*
X99607836Y-62110000D02*
X99392164Y-62110000D01*
%TO.C,C2*%
X104412836Y-72640000D02*
X104197164Y-72640000D01*
X104412836Y-73360000D02*
X104197164Y-73360000D01*
%TO.C,C10*%
X110877836Y-72640000D02*
X110662164Y-72640000D01*
X110877836Y-73360000D02*
X110662164Y-73360000D01*
%TO.C,C6*%
X98985000Y-67332836D02*
X98985000Y-67117164D01*
X99705000Y-67332836D02*
X99705000Y-67117164D01*
%TO.C,C7*%
X97485000Y-68107836D02*
X97485000Y-67892164D01*
X98205000Y-68107836D02*
X98205000Y-67892164D01*
%TO.C,R2*%
X116227500Y-61937742D02*
X116227500Y-62412258D01*
X117272500Y-61937742D02*
X117272500Y-62412258D01*
%TO.C,C14*%
X116765000Y-78938748D02*
X116765000Y-79461252D01*
X118235000Y-78938748D02*
X118235000Y-79461252D01*
%TO.C,D1*%
X119977500Y-70765000D02*
X119977500Y-72235000D01*
X119977500Y-72235000D02*
X122262500Y-72235000D01*
X122262500Y-70765000D02*
X119977500Y-70765000D01*
%TO.C,C11*%
X95640000Y-61087836D02*
X95640000Y-60872164D01*
X96360000Y-61087836D02*
X96360000Y-60872164D01*
%TD*%
M02*
